<svg width="90" height="82" fill="none" xmlns="http://www.w3.org/2000/svg"><g clip-path="url(#a)"><path d="M45 32.975a8.021 8.021 0 1 0 0 16.043 8.021 8.021 0 0 0 0-16.043ZM22.53 56.952l-1.77-.45C7.568 53.17 0 47.51 0 40.982c0-6.53 7.567-12.188 20.76-15.522l1.77-.446.499 1.755c1.532 5.232 3.27 9.682 5.34 13.94l-.229-.523.379.8-.379.798c-1.846 3.74-3.585 8.19-4.954 12.8l-.157.617-.499 1.751ZM19.939 29.56C9.91 32.375 3.758 36.684 3.758 40.981c0 4.294 6.153 8.602 16.18 11.423 1.44-4.556 2.943-8.338 4.676-11.99l-.243.567c-1.494-3.088-2.997-6.87-4.25-10.765l-.182-.657ZM67.47 56.952l-.499-1.759c-1.529-5.227-3.269-9.676-5.343-13.932l.228.52-.378-.8.378-.799c1.845-3.737 3.585-8.187 4.956-12.796l.16-.62.498-1.756 1.774.446C82.433 28.79 90 34.448 90 40.981c0 6.532-7.567 12.188-20.756 15.521l-1.774.45Zm-1.84-15.97c1.8 3.895 3.288 7.724 4.432 11.421 10.031-2.82 16.181-7.128 16.181-11.422 0-4.297-6.153-8.602-16.18-11.422-1.437 4.552-2.94 8.334-4.674 11.985l.241-.563ZM19.913 29.54l-.5-1.752C15.706 14.718 16.83 5.35 22.5 2.08c5.561-3.21 14.49.582 23.846 10.185l1.275 1.31-1.275 1.308a88.62 88.62 0 0 0-8.892 10.837l-.19.29-.507.723-.88.075c-5.273.424-10.115 1.234-14.807 2.42l.612-.132-1.77.446h.001Zm7.11-24.863c-1.006 0-1.894.218-2.644.65-3.728 2.148-4.388 9.618-1.819 19.698 3.404-.802 7.54-1.466 11.756-1.852l.368-.027a93.625 93.625 0 0 1 7.752-9.603l-.057.063C36.529 7.91 30.99 4.677 27.023 4.677ZM62.98 81.035c-.004 0-.004 0 0 0-5.343 0-12.206-4.024-19.327-11.337l-1.275-1.308 1.275-1.309a88.53 88.53 0 0 0 8.888-10.84l.19-.29.507-.724.877-.075c5.274-.42 10.118-1.23 14.813-2.414l-.612.13 1.77-.446.503 1.755c3.701 13.065 2.58 22.437-3.09 25.703a8.82 8.82 0 0 1-4.525 1.154l.006.001ZM47.62 68.356c5.85 5.696 11.39 8.93 15.356 8.93h.004c1.002 0 1.894-.219 2.64-.65 3.728-2.149 4.392-9.623 1.819-19.703-3.407.803-7.544 1.468-11.762 1.852l-.365.027a92.972 92.972 0 0 1-7.749 9.606l.057-.062ZM70.087 29.54l-1.77-.447c-4.086-1.057-8.93-1.867-13.89-2.267l-.312-.02-.877-.075-.506-.724c-2.872-4.147-5.855-7.78-9.105-11.153l.026.027-1.275-1.309 1.275-1.309C53.006 2.664 61.93-1.127 67.5 2.08c5.67 3.27 6.795 12.637 3.09 25.706l-.503 1.755Zm-14.775-6.394c4.282.39 8.35 1.024 12.127 1.88 2.573-10.08 1.909-17.55-1.819-19.7-3.705-2.14-10.668 1.14-18 8.28a93.207 93.207 0 0 1 7.497 9.252l.195.288Zm-28.29 57.89h-.13a8.883 8.883 0 0 1-4.436-1.179l.043.023c-5.67-3.266-6.795-12.634-3.086-25.703l.495-1.755 1.77.447c4.331 1.09 9.109 1.86 14.194 2.283l.88.075.503.724c2.876 4.148 5.86 7.782 9.11 11.158l-.027-.028 1.275 1.31-1.275 1.307c-7.118 7.313-13.98 11.337-19.316 11.337ZM22.56 56.932c-2.572 10.08-1.909 17.554 1.819 19.703 3.701 2.111 10.661-1.144 18-8.28a93.776 93.776 0 0 1-7.5-9.254l-.195-.29c-4.582-.41-8.717-1.075-12.753-2l.63.121h-.001ZM45 59.29c-3.086 0-6.259-.135-9.435-.397l-.881-.075-.506-.724c-1.531-2.159-3.205-4.756-4.772-7.423l-.29-.534c-1.273-2.132-2.731-4.87-4.078-7.672l-.295-.683-.375-.799.375-.799c1.641-3.484 3.099-6.222 4.662-8.89l-.29.535a113.966 113.966 0 0 1 5.063-7.957l.506-.724.881-.075c2.827-.254 6.115-.4 9.437-.4 3.322 0 6.61.146 9.858.43l-.421-.03.877.075.503.724c3.309 4.685 6.453 10.032 9.146 15.637l.293.675.378.8-.378.798c-2.976 6.276-6.12 11.624-9.673 16.662l.234-.35-.503.724-.877.075c-3.14.262-6.289.394-9.439.397Zm-8.239-4.065c5.55.417 10.928.417 16.481 0 2.824-4.064 5.564-8.73 7.952-13.6l.283-.642c-2.662-5.507-5.404-10.173-8.471-14.597l.233.354c-2.466-.198-5.34-.312-8.239-.312-2.9 0-5.772.114-8.615.336l.376-.024c-2.836 4.07-5.578 8.737-7.96 13.612l-.279.631C31.197 46.494 33.94 51.16 37 55.588l-.239-.364Z" fill="#868484"/></g><defs><clipPath id="a"><path fill="#fff" d="M0 0h90v82H0z"/></clipPath></defs></svg>