<svg width="107" height="61" fill="none" xmlns="http://www.w3.org/2000/svg"><mask id="a" maskUnits="userSpaceOnUse" x="3.883" y="-.422" width="103" height="60" fill="#000"><path fill="#fff" d="M3.883-.422h103v60h-103z"/><path d="M51.228 2.608c-.86.906-1.604 1.754-1.639 1.903-.045.149.012.481.104.745.962 2.578 1.5 8.343 1.237 13.317-.183 3.472-.263 4.527-.343 4.527-.046 0-.138-.757-.218-1.697-.333-4.217-1.238-7.22-2.648-8.755-1.054-1.158-2.315-1.456-3.346-.803-1.33.86-2.716 2.934-3.77 5.65l-.39.986-.528-.87c-1.146-1.926-2.659-3.542-6.303-6.797-2.602-2.304-4.401-4.172-5.65-5.856-.562-.745-1.089-1.387-1.17-1.421-.09-.023-.813.447-1.627 1.088-1.684 1.307-2.258 1.697-4.39 3.003-2.096 1.295-10.67 6.418-10.726 6.418-.023 0-.046-.092-.046-.206-.012-.287-1.215-3.106-1.444-3.358-.103-.115-.287-.218-.401-.218-.207 0-2.247 2.017-2.82 2.773-.344.47-.31.86.184 1.64.183.32.55 1.134.79 1.833.837 2.35 1.364 3.266 1.88 3.266.298 0 .86-.538 2.2-2.097 1.96-2.28 2.82-2.945 8.264-6.315 1.593-.986 4.962-2.773 5.054-2.67.023.023 0 .401-.058.836-.596 4.23-1.936 20.71-1.96 24.113-.01.596-.045 1.295-.102 1.547-.07.425-.172.16-1.467-3.781-1.387-4.23-2.58-7.988-3.462-10.98-.538-1.787-.928-2.67-1.26-2.773-.344-.103-.688.172-2.2 1.81-1.342 1.433-1.388 1.514-1.319 1.903.035.23.527 1.341 1.09 2.487 1.237 2.487 1.718 3.576 2.566 5.776 1.02 2.659 4.275 11.885 5.754 16.308.458 1.364.893 2.568.974 2.66.32.389.642.206 1.604-.952.516-.607 1.066-1.34 1.238-1.616l.298-.504-.264-1.903c-.435-3.186-.676-5.592-.768-7.506-.08-1.765-.068-1.822.138-1.73.768.32 2.785.973 3.049.973.172 0 .332.046.366.092.035.057.218 1.513.401 3.243.195 1.73.402 3.599.47 4.172.07.562.275 2.418.459 4.126.183 1.696.366 3.323.412 3.61l.07.527-1.124.378c-2.567.871-6.91 2.728-7.358 3.14-.573.528-1.272 2.442-1.1 2.98.115.367.516.871.745.94.218.069 1.009-.298 1.971-.906 2.143-1.375 7.175-3.426 11.358-4.653 7.438-2.166 15.369-3.186 22.383-2.865 9.81.436 16.01 1.788 20.274 4.424.894.562 1.192.608 1.719.287.802-.482 1.88-1.834 1.88-2.338 0-.184-1.731-1.456-2.522-1.857-.607-.31-3.61-1.283-4.252-1.387-.252-.045-.447-.08-.447-.091l.172-.47c.24-.676.206-1.284-.115-2.246-1.547-4.516-3.782-12.412-4.24-15.014l-.08-.424.561.104c.31.057.791.171 1.066.252.481.137.493.149.71.94.975 3.644 2.362 8.148 3.829 12.491 1.088 3.198 1.306 3.61 1.96 3.61.252-.011.47-.183 1.088-.905 1.135-1.318 1.112-1.203.608-3.071-.54-2.029-1.158-4.23-2.51-8.905-.608-2.086-1.066-3.805-1.043-3.84.034-.022.538.058 1.123.195.573.126 1.65.321 2.372.424.722.092 1.65.23 2.063.298.768.126 2.132.608 2.373.837.194.183-.573 2.074-2.19 5.375-.733 1.501-1.329 2.796-1.329 2.877 0 .332.722 1.042 2.12 2.085 2.281 1.708 3.232 2.556 5.845 5.215 2.212 2.258 2.9 3.014 4.321 4.802.539.676 1.146 1.146 1.478 1.146.413 0 2.694-2.109 3.45-3.186l.344-.493-.539-1.031c-1.638-3.163-3.713-12.16-4.297-18.612-.402-4.47-.424-6.59-.15-12.905l.195-4.55 2.006-.527c1.112-.286 2.189-.55 2.395-.596l.379-.069-.241.493c-.447.871-1.009 2.441-1.192 3.335-.218 1.078-.24 3.014-.023 3.897.332 1.432 2.04 3.759 4.94 6.727 1.948 2.006 2.704 2.648 3.094 2.648.401 0 1.662-1.41 1.662-1.857 0-.115-.447-.688-.986-1.272-4.997-5.33-6.487-9.123-4.767-12.114.16-.286.997-1.25 1.868-2.143 1.845-1.914 2.005-2.212 1.547-2.9a8.274 8.274 0 0 0-.745-.916c-.401-.424-.504-.47-.779-.401-4.653 1.191-14.601 2.819-18.957 3.094-3.976.252-7.105-1.158-8.515-3.85-.527-1.01-.722-1.25-.986-1.25-.252 0-3.3 3.278-3.392 3.633-.183.688 1.456 2.487 3.45 3.816a86 86 0 0 1 1.834 1.238c2.303 1.65 5.57 4.733 6.005 5.673.596 1.26.436 2.155-.607 3.266-.814.86-1.754 1.524-3.737 2.602-1.822.997-2.063 1.123-2.12 1.066-.057-.058-.263-2.464-.458-5.616-.092-1.501-.23-3.117-.298-3.599-.424-3.082-1.72-5.65-2.67-5.283-.218.092-3.691 4-4.16 4.687-.219.344-.402.505-.425.413-.034-.08-.16-.79-.298-1.582-.493-2.922-.722-4.01-1.26-6.13-1.044-4.035-1.261-4.642-1.674-4.642-.08 0-.87.79-1.753 1.742-.894.962-1.891 2.005-2.247 2.303-.343.31-.63.63-.63.734 0 .103.287.515.642.928.355.412.687.86.733.997.218.573.24 1.639.058 3.84-.264 3.357-.344 3.987-1.032 8.079-.963 5.65-.825 5.077-1.238 5.169-.263.045-.676.4-1.42 1.18-.585.607-1.101 1.192-1.135 1.307-.104.309.229.722 1.111 1.363.459.333.791.665.791.78 0 .114-.16.916-.355 1.787-.333 1.513-.367 1.616-.791 2.006-.24.218-.894.688-1.456 1.02-.55.344-1.455.917-2.005 1.283-.55.367-1.043.665-1.089.665-.057 0 .023-.94.16-2.097.15-1.146.574-4.481.952-7.415 1.146-9.03 1.432-11.598 2.017-18.222.252-2.774.275-7.186.057-8.71-.183-1.295-.63-2.888-.94-3.404-.4-.642-.584-.539-2.315 1.25Zm-24.915 8.057c.137.092.802.756 1.478 1.479l1.238 1.306-.493.573c-.264.32-.951.974-1.536 1.444-1.455 1.192-1.478 1.25-.997 2.452.55 1.376.573 1.57 1.33 12.091.068.986.103 1.823.08 1.845-.035.035-.378-.022-.78-.126l-.733-.183-.894.963-.894.962-.011-2.108c0-3.244.332-7.965.985-13.879.47-4.31.826-6.99.929-6.99.023 0 .16.08.298.171ZM88.258 14.7c-.08.287-.092 1.26-.046 2.728.046 1.26.103 3.117.126 4.125.172 5.605.287 8 .585 11.29.538 6.176 1.616 12.205 2.704 15.276.138.355.218.676.195.699-.023.023-1.81-1.662-3.965-3.759-2.143-2.097-4.092-3.931-4.32-4.091-.379-.253-.413-.321-.413-.826 0-.297.08-.722.172-.95.091-.219.962-1.72 1.925-3.347.997-1.65 1.856-3.232 1.983-3.599.194-.642.194-.665-.023-.905-.688-.757-3.427-1.387-6.968-1.593-2.086-.126-3.393-.31-3.393-.47 0-.057.046-.103.103-.103.16 0 2.453-1.536 3.908-2.613 1.868-1.398 3.003-2.556 3.462-3.53.343-.734.378-.883.378-1.937 0-1.043-.035-1.215-.356-1.89-.378-.803-1.203-1.892-2.613-3.439l-.882-.974.619-.092c1.238-.172 4.183-.39 5.547-.412l1.387-.012-.115.424Zm-56.387 1.192c.802.7 1.914 1.639 2.476 2.086 1.134.917 1.639 1.524 2.131 2.544.516 1.089.608 1.857.344 2.728-.607 1.96-3.564 5.638-5.467 6.807l-.584.355-.058-7.117c-.045-6.67-.091-7.563-.378-8.48-.034-.103-.034-.195.012-.195.034 0 .722.573 1.524 1.272Zm13.822 2.051c1.937 3.748 2.315 9.604 1.031 16.045-.31 1.57-.94 3.874-1.089 3.965-.137.08-.997-1.237-1.547-2.406-1.111-2.35-1.765-5.433-1.845-8.79-.115-4.069.481-7.003 1.925-9.604l.482-.86.275.344c.149.183.493.768.768 1.306Zm23.54 2.12c.287.975.55 2.705.94 6.075.32 2.888.39 2.59-.653 3.105-.493.241-.929.459-.963.47-.046.023-.287-1.077-.562-2.452-.573-2.98-1.49-7.85-1.49-7.965 0-.092.929-.172 1.834-.16l.63.01.264.918Zm-6.063 2.751c.184.757.688 2.968 1.1 4.928.413 1.948.849 3.931.963 4.378l.218.837h-.481c-.356 0-.894-.207-2.327-.929-1.662-.825-1.856-.95-1.81-1.169.034-.137.4-1.982.813-4.091.814-4.172 1.077-5.42 1.135-5.363.023.023.195.653.39 1.41Zm-23.196 9.008c.653 3.014 1.352 5.111 2.842 8.55l.413.94-.287.171c-.149.103-.527.195-.837.195-1.73.046-3.369-2.303-3.781-5.432-.276-1.971-.127-4.813.355-6.727.412-1.708.435-1.72.733-.287.15.688.401 1.857.562 2.59Zm-4.31-2.109c-.985 2.854-1.168 6.9-.446 9.742.87 3.392 3.231 5.42 6.303 5.42 2.178 0 3.76-.905 5.089-2.899.71-1.077.928-1.536 1.639-3.461.274-.756.47-1.226.435-1.031-.034.183-.23 1.375-.447 2.636-.848 4.893-.894 5.604-.355 6.647.137.286.229.538.195.573-.035.034-.253.057-.482.057-.664 0-4.94.55-6.716.86-2.063.366-4.86.985-6.727 1.5-.814.23-1.49.39-1.502.367-.023-.022-.091-.504-.16-1.065-.126-.929-.115-1.123.08-1.811.252-.86.24-.848.837-1.639.493-.665.516-.745.218-1.008-.195-.172-.253-.172-.86.057-.355.137-.665.23-.688.206-.045-.057-.997-11.185-.985-11.563.011-.23.263-.47 1.283-1.204.7-.504 1.765-1.387 2.373-1.971.607-.584 1.111-1.054 1.123-1.066.011 0-.08.298-.206.653Zm25.123 6.006c1.868.687 2.017.722 3.759.722l1.661.011.585 2.063a292.978 292.978 0 0 0 1.754 5.627c.641 1.971 1.168 3.713 1.168 3.874 0 .367-.011.367-1.719.069-3.805-.677-8.343-.952-14.417-.906-4.252.046-4.78.035-4.562-.114.126-.104 1.295-1.055 2.579-2.132 1.295-1.066 2.659-2.166 3.037-2.441.653-.459.963-.608.825-.378-.046.057-.149.492-.252.974-.16.79-.16.928 0 1.478.103.333.333.825.527 1.089.55.756.78.699 2.04-.596l1.055-1.066v-1.421c.011-2.177.114-2.682.79-3.793.322-.516.585-.986.585-1.043 0-.058-.149-.298-.344-.539-.183-.24-.344-.516-.344-.63 0-.184.241-1.204.275-1.204.012 0 .459.16.998.356Z"/></mask><path d="M51.228 2.608c-.86.906-1.604 1.754-1.639 1.903-.045.149.012.481.104.745.962 2.578 1.5 8.343 1.237 13.317-.183 3.472-.263 4.527-.343 4.527-.046 0-.138-.757-.218-1.697-.333-4.217-1.238-7.22-2.648-8.755-1.054-1.158-2.315-1.456-3.346-.803-1.33.86-2.716 2.934-3.77 5.65l-.39.986-.528-.87c-1.146-1.926-2.659-3.542-6.303-6.797-2.602-2.304-4.401-4.172-5.65-5.856-.562-.745-1.089-1.387-1.17-1.421-.09-.023-.813.447-1.627 1.088-1.684 1.307-2.258 1.697-4.39 3.003-2.096 1.295-10.67 6.418-10.726 6.418-.023 0-.046-.092-.046-.206-.012-.287-1.215-3.106-1.444-3.358-.103-.115-.287-.218-.401-.218-.207 0-2.247 2.017-2.82 2.773-.344.47-.31.86.184 1.64.183.32.55 1.134.79 1.833.837 2.35 1.364 3.266 1.88 3.266.298 0 .86-.538 2.2-2.097 1.96-2.28 2.82-2.945 8.264-6.315 1.593-.986 4.962-2.773 5.054-2.67.023.023 0 .401-.058.836-.596 4.23-1.936 20.71-1.96 24.113-.01.596-.045 1.295-.102 1.547-.07.425-.172.16-1.467-3.781-1.387-4.23-2.58-7.988-3.462-10.98-.538-1.787-.928-2.67-1.26-2.773-.344-.103-.688.172-2.2 1.81-1.342 1.433-1.388 1.514-1.319 1.903.035.23.527 1.341 1.09 2.487 1.237 2.487 1.718 3.576 2.566 5.776 1.02 2.659 4.275 11.885 5.754 16.308.458 1.364.893 2.568.974 2.66.32.389.642.206 1.604-.952.516-.607 1.066-1.34 1.238-1.616l.298-.504-.264-1.903c-.435-3.186-.676-5.592-.768-7.506-.08-1.765-.068-1.822.138-1.73.768.32 2.785.973 3.049.973.172 0 .332.046.366.092.035.057.218 1.513.401 3.243.195 1.73.402 3.599.47 4.172.07.562.275 2.418.459 4.126.183 1.696.366 3.323.412 3.61l.07.527-1.124.378c-2.567.871-6.91 2.728-7.358 3.14-.573.528-1.272 2.442-1.1 2.98.115.367.516.871.745.94.218.069 1.009-.298 1.971-.906 2.143-1.375 7.175-3.426 11.358-4.653 7.438-2.166 15.369-3.186 22.383-2.865 9.81.436 16.01 1.788 20.274 4.424.894.562 1.192.608 1.719.287.802-.482 1.88-1.834 1.88-2.338 0-.184-1.731-1.456-2.522-1.857-.607-.31-3.61-1.283-4.252-1.387-.252-.045-.447-.08-.447-.091l.172-.47c.24-.676.206-1.284-.115-2.246-1.547-4.516-3.782-12.412-4.24-15.014l-.08-.424.561.104c.31.057.791.171 1.066.252.481.137.493.149.71.94.975 3.644 2.362 8.148 3.829 12.491 1.088 3.198 1.306 3.61 1.96 3.61.252-.011.47-.183 1.088-.905 1.135-1.318 1.112-1.203.608-3.071-.54-2.029-1.158-4.23-2.51-8.905-.608-2.086-1.066-3.805-1.043-3.84.034-.022.538.058 1.123.195.573.126 1.65.321 2.372.424.722.092 1.65.23 2.063.298.768.126 2.132.608 2.373.837.194.183-.573 2.074-2.19 5.375-.733 1.501-1.329 2.796-1.329 2.877 0 .332.722 1.042 2.12 2.085 2.281 1.708 3.232 2.556 5.845 5.215 2.212 2.258 2.9 3.014 4.321 4.802.539.676 1.146 1.146 1.478 1.146.413 0 2.694-2.109 3.45-3.186l.344-.493-.539-1.031c-1.638-3.163-3.713-12.16-4.297-18.612-.402-4.47-.424-6.59-.15-12.905l.195-4.55 2.006-.527c1.112-.286 2.189-.55 2.395-.596l.379-.069-.241.493c-.447.871-1.009 2.441-1.192 3.335-.218 1.078-.24 3.014-.023 3.897.332 1.432 2.04 3.759 4.94 6.727 1.948 2.006 2.704 2.648 3.094 2.648.401 0 1.662-1.41 1.662-1.857 0-.115-.447-.688-.986-1.272-4.997-5.33-6.487-9.123-4.767-12.114.16-.286.997-1.25 1.868-2.143 1.845-1.914 2.005-2.212 1.547-2.9a8.274 8.274 0 0 0-.745-.916c-.401-.424-.504-.47-.779-.401-4.653 1.191-14.601 2.819-18.957 3.094-3.976.252-7.105-1.158-8.515-3.85-.527-1.01-.722-1.25-.986-1.25-.252 0-3.3 3.278-3.392 3.633-.183.688 1.456 2.487 3.45 3.816a86 86 0 0 1 1.834 1.238c2.303 1.65 5.57 4.733 6.005 5.673.596 1.26.436 2.155-.607 3.266-.814.86-1.754 1.524-3.737 2.602-1.822.997-2.063 1.123-2.12 1.066-.057-.058-.263-2.464-.458-5.616-.092-1.501-.23-3.117-.298-3.599-.424-3.082-1.72-5.65-2.67-5.283-.218.092-3.691 4-4.16 4.687-.219.344-.402.505-.425.413-.034-.08-.16-.79-.298-1.582-.493-2.922-.722-4.01-1.26-6.13-1.044-4.035-1.261-4.642-1.674-4.642-.08 0-.87.79-1.753 1.742-.894.962-1.891 2.005-2.247 2.303-.343.31-.63.63-.63.734 0 .103.287.515.642.928.355.412.687.86.733.997.218.573.24 1.639.058 3.84-.264 3.357-.344 3.987-1.032 8.079-.963 5.65-.825 5.077-1.238 5.169-.263.045-.676.4-1.42 1.18-.585.607-1.101 1.192-1.135 1.307-.104.309.229.722 1.111 1.363.459.333.791.665.791.78 0 .114-.16.916-.355 1.787-.333 1.513-.367 1.616-.791 2.006-.24.218-.894.688-1.456 1.02-.55.344-1.455.917-2.005 1.283-.55.367-1.043.665-1.089.665-.057 0 .023-.94.16-2.097.15-1.146.574-4.481.952-7.415 1.146-9.03 1.432-11.598 2.017-18.222.252-2.774.275-7.186.057-8.71-.183-1.295-.63-2.888-.94-3.404-.4-.642-.584-.539-2.315 1.25Zm-24.915 8.057c.137.092.802.756 1.478 1.479l1.238 1.306-.493.573c-.264.32-.951.974-1.536 1.444-1.455 1.192-1.478 1.25-.997 2.452.55 1.376.573 1.57 1.33 12.091.068.986.103 1.823.08 1.845-.035.035-.378-.022-.78-.126l-.733-.183-.894.963-.894.962-.011-2.108c0-3.244.332-7.965.985-13.879.47-4.31.826-6.99.929-6.99.023 0 .16.08.298.171ZM88.258 14.7c-.08.287-.092 1.26-.046 2.728.046 1.26.103 3.117.126 4.125.172 5.605.287 8 .585 11.29.538 6.176 1.616 12.205 2.704 15.276.138.355.218.676.195.699-.023.023-1.81-1.662-3.965-3.759-2.143-2.097-4.092-3.931-4.32-4.091-.379-.253-.413-.321-.413-.826 0-.297.08-.722.172-.95.091-.219.962-1.72 1.925-3.347.997-1.65 1.856-3.232 1.983-3.599.194-.642.194-.665-.023-.905-.688-.757-3.427-1.387-6.968-1.593-2.086-.126-3.393-.31-3.393-.47 0-.057.046-.103.103-.103.16 0 2.453-1.536 3.908-2.613 1.868-1.398 3.003-2.556 3.462-3.53.343-.734.378-.883.378-1.937 0-1.043-.035-1.215-.356-1.89-.378-.803-1.203-1.892-2.613-3.439l-.882-.974.619-.092c1.238-.172 4.183-.39 5.547-.412l1.387-.012-.115.424Zm-56.387 1.192c.802.7 1.914 1.639 2.476 2.086 1.134.917 1.639 1.524 2.131 2.544.516 1.089.608 1.857.344 2.728-.607 1.96-3.564 5.638-5.467 6.807l-.584.355-.058-7.117c-.045-6.67-.091-7.563-.378-8.48-.034-.103-.034-.195.012-.195.034 0 .722.573 1.524 1.272Zm13.822 2.051c1.937 3.748 2.315 9.604 1.031 16.045-.31 1.57-.94 3.874-1.089 3.965-.137.08-.997-1.237-1.547-2.406-1.111-2.35-1.765-5.433-1.845-8.79-.115-4.069.481-7.003 1.925-9.604l.482-.86.275.344c.149.183.493.768.768 1.306Zm23.54 2.12c.287.975.55 2.705.94 6.075.32 2.888.39 2.59-.653 3.105-.493.241-.929.459-.963.47-.046.023-.287-1.077-.562-2.452-.573-2.98-1.49-7.85-1.49-7.965 0-.092.929-.172 1.834-.16l.63.01.264.918Zm-6.063 2.751c.184.757.688 2.968 1.1 4.928.413 1.948.849 3.931.963 4.378l.218.837h-.481c-.356 0-.894-.207-2.327-.929-1.662-.825-1.856-.95-1.81-1.169.034-.137.4-1.982.813-4.091.814-4.172 1.077-5.42 1.135-5.363.023.023.195.653.39 1.41Zm-23.196 9.008c.653 3.014 1.352 5.111 2.842 8.55l.413.94-.287.171c-.149.103-.527.195-.837.195-1.73.046-3.369-2.303-3.781-5.432-.276-1.971-.127-4.813.355-6.727.412-1.708.435-1.72.733-.287.15.688.401 1.857.562 2.59Zm-4.31-2.109c-.985 2.854-1.168 6.9-.446 9.742.87 3.392 3.231 5.42 6.303 5.42 2.178 0 3.76-.905 5.089-2.899.71-1.077.928-1.536 1.639-3.461.274-.756.47-1.226.435-1.031-.034.183-.23 1.375-.447 2.636-.848 4.893-.894 5.604-.355 6.647.137.286.229.538.195.573-.035.034-.253.057-.482.057-.664 0-4.94.55-6.716.86-2.063.366-4.86.985-6.727 1.5-.814.23-1.49.39-1.502.367-.023-.022-.091-.504-.16-1.065-.126-.929-.115-1.123.08-1.811.252-.86.24-.848.837-1.639.493-.665.516-.745.218-1.008-.195-.172-.253-.172-.86.057-.355.137-.665.23-.688.206-.045-.057-.997-11.185-.985-11.563.011-.23.263-.47 1.283-1.204.7-.504 1.765-1.387 2.373-1.971.607-.584 1.111-1.054 1.123-1.066.011 0-.08.298-.206.653Zm25.123 6.006c1.868.687 2.017.722 3.759.722l1.661.011.585 2.063a292.978 292.978 0 0 0 1.754 5.627c.641 1.971 1.168 3.713 1.168 3.874 0 .367-.011.367-1.719.069-3.805-.677-8.343-.952-14.417-.906-4.252.046-4.78.035-4.562-.114.126-.104 1.295-1.055 2.579-2.132 1.295-1.066 2.659-2.166 3.037-2.441.653-.459.963-.608.825-.378-.046.057-.149.492-.252.974-.16.79-.16.928 0 1.478.103.333.333.825.527 1.089.55.756.78.699 2.04-.596l1.055-1.066v-1.421c.011-2.177.114-2.682.79-3.793.322-.516.585-.986.585-1.043 0-.058-.149-.298-.344-.539-.183-.24-.344-.516-.344-.63 0-.184.241-1.204.275-1.204.012 0 .459.16.998.356Z" stroke="#868484" stroke-width="2" mask="url(#a)"/><path d="M10.434 52.914c.3.137.612.096.909-.023.286-.116.613-.327 1-.624.78-.6 1.93-1.65 3.697-3.33v-.002c.96-.913 1.667-1.619 2.18-2.184.507-.56.844-1.004 1.047-1.394a.87.87 0 0 0 .094-.652c-.052-.204-.183-.407-.317-.605l-.005-.008a5.628 5.628 0 0 0-.51-.652c-.157-.162-.377-.34-.674-.368-.305-.028-.552.113-.732.252a4.115 4.115 0 0 0-.455.436c-.534-1.92-3.074-11.922-3.464-13.666v-.002c-.572-2.5-.945-4.62-1.09-6.182v-.004c-.076-.738-.171-1.36-.289-1.847-.112-.466-.262-.888-.496-1.158v.001c-.096-.11-.333-.4-.745-.379a1.11 1.11 0 0 0-.477.154c-.141.079-.295.19-.463.326-.497.402-1.27 1.152-2.546 2.428l-1.452 1.457c-2.311 2.328-3.598 3.633-4.29 4.4-.34.377-.563.652-.692.87-.134.227-.21.47-.13.737H.531l.006.018.002.009h.002c.033.101.089.18.108.207.035.048.077.098.12.147.088.1.204.219.335.349.266.262.617.588.99.914a94.93 94.93 0 0 1 2.992 2.799c.462.456.896.87 1.226 1.172.163.15.306.275.414.365a2.8 2.8 0 0 0 .148.118.942.942 0 0 0 .158.09c.023.01.097.037.194.037l.13-.014a.727.727 0 0 0 .087-.025c.05-.017.096-.04.136-.06.08-.04.169-.093.257-.15.178-.118.394-.276.618-.452a14.5 14.5 0 0 0 1.331-1.18l.068-.072c.34 1.2 1.372 4.762 2.519 8.72l.935 3.225-.131.122-.001.001a7.309 7.309 0 0 1-.857.655l-.007.005c-.783.522-1.463 1.098-1.953 1.648-.244.275-.45.552-.596.82-.144.262-.252.554-.252.847 0 .332.115.689.258.97.073.146.163.288.264.41.097.116.23.245.399.323l.002.001Zm-1.25-20.12a.703.703 0 0 1-.312-.056c-.135-.061-.318-.185-.725-.49l.001-.002c-.46-.351-1.362-1.14-1.993-1.759l-.004-.004v.001l-.823-.79.668-.753a32.247 32.247 0 0 1 1.642-1.709h-.001l.027-.024.043.258c.11.668.543 2.288.943 3.594l.534 1.735Zm88.036 3.972c.385.033.724-.17.992-.393.224-.186.518-.55.74-.855a6.29 6.29 0 0 0 .307-.46c.04-.069.08-.14.11-.206.015-.034.032-.073.045-.116a.636.636 0 0 0 .032-.191.685.685 0 0 0-.091-.324 1.632 1.632 0 0 0-.118-.182 3.973 3.973 0 0 0-.295-.35 3.947 3.947 0 0 0-.328-.315 1.56 1.56 0 0 0-.174-.128.836.836 0 0 0-.118-.06.544.544 0 0 0-.5.026c-.041.023-.082.05-.116.073-.07.049-.15.113-.234.183a8.278 8.278 0 0 0-.581.545 6.389 6.389 0 0 0-.54.612 2.787 2.787 0 0 0-.188.273c-.025.043-.05.093-.072.145a.697.697 0 0 0-.046.166l-.006.08.01.12c.018.12.059.24.094.327.05.13.123.273.208.405h-.001l.006.01.007.012h.001c.179.292.45.568.856.603ZM57.083 60.491a.597.597 0 0 0 .175-.06c.047-.023.093-.05.133-.076a4.45 4.45 0 0 0 .27-.197 14.306 14.306 0 0 0 1.265-1.134c.083-.085.16-.168.22-.24.03-.036.063-.08.091-.126a.7.7 0 0 0 .05-.096.546.546 0 0 0 .044-.212.84.84 0 0 0-.18-.494 1.836 1.836 0 0 0-.311-.316 3.94 3.94 0 0 0-.858-.517l-.007-.004c-.511-.22-1.549-.51-2.665-.771-1.128-.264-2.386-.512-3.359-.64a37.763 37.763 0 0 0-2.21-.213c3.33-.58 6.027-.756 10.335-.727 1.927.017 2.96.025 3.525 0 .273-.01.49-.03.656-.081a.782.782 0 0 0 .43-.306l.007-.01.005-.005c.155-.215.27-.485.227-.791-.043-.31-.232-.547-.445-.72-.408-.33-1.102-.585-1.996-.815-.918-.235-1.44-.268-4.337-.29h-.002c-1.801-.012-4.126.01-5.182.057v.001c-3.396.14-8.79 1.322-12.229 2.669-.729.286-1.225.497-1.593.725a2.827 2.827 0 0 0-.873.833v-.001c-.34.464-.545.965-.535 1.474.01.52.242.98.638 1.349l.105.096c.041.036.089.072.14.104a.853.853 0 0 0 .406.127c.128.008.262-.01.392-.031.134-.023.302-.057.505-.099h-.001c2.25-.45 3.716-.574 6.821-.574 2.91 0 3.138.023 4.554.3l.682.147c1.603.37 3.255.901 4.016 1.286l.002.002c.19.095.377.182.526.246a3.872 3.872 0 0 0 .294.114c.017.004.089.025.172.025l.097-.009Z" stroke="#868484"/></svg>