<svg width="83" height="80" fill="none" xmlns="http://www.w3.org/2000/svg"><path d="M5.274 18.798c-7.35 10.561-6.44 24.298-.82 35.513.128.274.27.533.408.793.08.18.17.346.267.516.045.097.107.197.163.287.09.18.187.354.28.527l.544.917c.1.17.197.336.312.506.19.325.415.647.612.973.09.135.174.27.274.405.385.603.739 1.104 1.112 1.59l-.04-.053c.27.37.54.73.832 1.09.094.133.198.264.295.396l.765.931c.093.108.187.232.287.343.34.41.7.807 1.06 1.208 0 .007.01.014.017.025.448.563.929 1.061 1.454 1.51l.014.013c.277.284.555.568.849.845l.35.336c.384.36.768.72 1.173 1.067.007 0 .01.006.018.01l.197.173c.353.308.71.616 1.073.9l.433.364c.295.235.6.46.9.692l.47.36c.323.243.666.482.995.717.12.087.243.173.367.253l.1.08.974.64.415.277c.502.32 1.008.632 1.517.94.145.071.29.151.426.234.374.215.76.433 1.139.634.208.117.422.218.637.325.26.145.53.287.807.433.075.023.139.05.2.082l-.006-.002c.114.052.22.107.332.162.416.208.848.405 1.299.603.083.035.173.07.263.118.498.218.997.425 1.513.63.118.034.242.093.364.138.467.177.948.357 1.423.527l.173.062c.53.18 1.052.353 1.59.52.124.034.252.08.383.114.55.166 1.084.363 1.638.47 35.527 6.476 45.852-21.36 45.852-21.36C72.3 68.927 56.91 71.904 42.33 68.59c-.54-.125-1.08-.298-1.624-.457-.99-.286-1.644-.5-2.29-.728l.327.1-.215-.082c-.47-.16-.924-.336-1.385-.513a4.412 4.412 0 0 0-.341-.13l-.04-.012c-.502-.202-1-.413-1.495-.633-.108-.035-.198-.083-.305-.125a43.574 43.574 0 0 1-1.728-.8l.478.211a5.064 5.064 0 0 1-.367-.18c-.326-.152-.651-.325-.97-.49a12.136 12.136 0 0 1-.717-.369l.07.035c-.392-.208-.783-.433-1.174-.647-.118-.083-.253-.153-.388-.229a44.599 44.599 0 0 1-1.734-1.063l.217.132a6.955 6.955 0 0 1-.43-.288l.022.014c-.448-.276-.8-.51-1.144-.756l.063.043c-.12-.08-.232-.166-.356-.253-.373-.256-.74-.52-1.101-.794l.083.06c-.146-.118-.302-.229-.457-.346-.305-.24-.613-.468-.918-.72l-.41-.326a37.46 37.46 0 0 1-1.196-1.008l.04.035a.898.898 0 0 0-.124-.102l-.003-.002-1.202-1.094-.346-.326c-.284-.287-.575-.564-.866-.848l-.336-.346a31.482 31.482 0 0 1-1.048-1.095l-.022-.024-.052-.055c-.367-.402-.723-.81-1.083-1.226-.094-.107-.18-.222-.277-.336l-.783-.96a54.74 54.74 0 0 1-1.038-1.355l-.14-.195c-8.085-11.04-11.01-26.275-4.54-38.77l-5.712 7.261Zm22.809-8.895c-5.33 7.65-5.028 17.877-.88 25.966a31.254 31.254 0 0 0 2.41 4.018l-.066-.098c.797 1.142 1.676 2.493 2.743 3.414.37.422.772.83 1.19 1.243l.313.312c.394.38.8.754 1.212 1.125l.05.045c.418.366.885.753 1.36 1.13l.075.054c.118.08.218.173.332.253.485.374.973.734 1.479 1.09l.052.032c.215.156.443.298.685.45.098.062.208.145.312.208.367.235.727.457 1.098.682.059.024.11.055.166.08.312.19.65.373.977.543.114.07.224.121.342.187.232.114.46.236.682.353l.11.05c.469.227.947.442 1.414.657.118.045.218.083.319.131.384.166.775.326 1.16.475.172.058.335.128.498.18.353.131.724.253 1.074.374l.484.156c.506.155 1.018.36 1.55.446C76.65 58.005 83 36.884 83 36.884c-5.717 8.227-16.78 12.147-28.57 9.085a25.137 25.137 0 0 1-1.748-.506l.197.056c-.167-.045-.312-.097-.471-.145-.36-.125-.731-.246-1.08-.378l-.5-.187c-.387-.155-.782-.3-1.16-.467-.117-.052-.224-.087-.314-.139-.485-.218-.973-.432-1.444-.664l-.714-.37-.412-.208c-.318-.167-.612-.34-.917-.52a2.064 2.064 0 0 1-.224-.123l.01.005c-.368-.228-.75-.45-1.1-.685-.116-.066-.224-.146-.335-.215l-.72-.47c-.498-.347-.987-.72-1.478-1.08-.111-.1-.218-.185-.326-.275-5.183-4.075-9.273-9.647-11.212-15.956C28.44 17.084 28.89 9.73 32.418 3.76l-4.335 6.143Zm19.18-6.652c-3.145 4.612-3.446 10.34-1.282 15.426 2.3 5.402 7.002 9.644 12.48 11.652.224.087.443.16.675.242l.304.094c.319.1.64.218.97.29 15.152 2.923 19.252-7.78 20.357-9.352-3.608 5.18-9.657 6.423-17.078 4.62a16.362 16.362 0 0 1-1.902-.593l.115.038a21.187 21.187 0 0 1-2.267-.937l.13.058a22.566 22.566 0 0 1-3.795-2.326l.056.04C49.378 17.47 45.26 7.856 49.596.027l-2.333 3.224Z" fill="#868484"/></svg>