<svg width="80" height="80" fill="none" xmlns="http://www.w3.org/2000/svg"><g clip-path="url(#a)"><path d="M0 40v40h80V0H0v40Zm64.47-3.187c2.033.507 3.58 1.41 5.003 2.884.737.786 1.83 2.22 1.917 2.566.027.1-3.453 2.434-5.56 3.744-.077.05-.383-.28-.723-.787-1.034-1.5-2.11-2.147-3.76-2.26-2.427-.167-3.987 1.103-3.974 3.223l-.002.125c0 .503.127.977.35 1.391l-.008-.016c.534 1.104 1.527 1.767 4.634 3.11 5.73 2.467 8.18 4.09 9.703 6.4 1.7 2.577 2.083 6.694.927 9.754-1.267 3.326-4.417 5.586-8.85 6.333-1.37.243-4.62.207-6.094-.06-3.213-.573-6.26-2.16-8.14-4.243-.736-.81-2.173-2.934-2.083-3.084.037-.053.367-.256.733-.47.36-.203 1.704-.98 2.974-1.716l2.3-1.334.483.714c.673 1.026 2.143 2.436 3.033 2.906 2.554 1.347 6.057 1.157 7.784-.393a2.94 2.94 0 0 0 1.043-2.407v.007c0-.927-.117-1.333-.6-2.033-.62-.887-1.89-1.634-5.497-3.2-4.126-1.777-5.903-2.88-7.53-4.634a10.512 10.512 0 0 1-2.177-3.925l-.02-.075c-.303-1.13-.38-3.963-.14-5.103.85-3.99 3.86-6.767 8.204-7.593 1.41-.267 4.687-.167 6.07.176Zm-18.78 3.34.027 3.277H35.3v29.587h-7.367V43.43H17.527v-3.213c0-1.78.036-3.267.086-3.3.04-.054 6.377-.08 14.057-.067l13.983.04.037 3.263Z" fill="#868484"/></g><defs><clipPath id="a"><path fill="#fff" d="M0 0h80v80H0z"/></clipPath></defs></svg>