<svg width="80" height="80" viewBox="0 0 80 80" fill="none" xmlns="http://www.w3.org/2000/svg">
<g clip-path="url(#clip0_3851_233)">
<path d="M78.487 36.4341L43.557 1.5071C42.5888 0.541957 41.2775 0 39.9105 0C38.5434 0 37.2322 0.541957 36.264 1.5071L29.027 8.7571L38.227 17.9571C40.377 17.2411 42.824 17.7241 44.524 19.4271C45.3367 20.2398 45.9045 21.2647 46.1627 22.3846C46.4208 23.5046 46.3589 24.6746 45.984 25.7611L54.844 34.6271C55.9293 34.2497 57.0988 34.1856 58.2189 34.442C59.3389 34.6984 60.3641 35.2651 61.177 36.0771C61.7483 36.6462 62.2017 37.3226 62.511 38.0674C62.8203 38.8121 62.9795 39.6106 62.9795 40.4171C62.9795 41.2235 62.8203 42.022 62.511 42.7668C62.2017 43.5116 61.7483 44.1879 61.177 44.7571C60.6084 45.3268 59.933 45.7788 59.1895 46.0872C58.4459 46.3955 57.6489 46.5543 56.844 46.5543C56.0391 46.5543 55.242 46.3955 54.4985 46.0872C53.755 45.7788 53.0796 45.3268 52.511 44.7571C51.6588 43.9024 51.0768 42.816 50.8373 41.6331C50.5978 40.4502 50.7114 39.2229 51.164 38.1041L42.867 29.8511V51.6001C43.469 51.8953 44.0186 52.2872 44.494 52.7601C46.871 55.1631 46.871 59.0361 44.494 61.4261C43.9232 61.9976 43.2453 62.451 42.4992 62.7603C41.753 63.0696 40.9532 63.2288 40.1455 63.2288C39.3378 63.2288 38.538 63.0696 37.7918 62.7603C37.0457 62.451 36.3678 61.9976 35.797 61.4261C35.2272 60.8581 34.7752 60.1833 34.4667 59.4402C34.1583 58.6972 33.9995 57.9006 33.9995 57.0961C33.9995 56.2916 34.1583 55.495 34.4667 54.752C34.7752 54.0089 35.2272 53.3341 35.797 52.7661C36.3749 52.1881 37.06 51.7285 37.814 51.4131V29.4501C37.0651 29.1422 36.3852 28.688 35.814 28.1141C34.9528 27.2557 34.3671 26.16 34.132 24.967C33.8969 23.7741 34.0229 22.5381 34.494 21.4171L25.454 12.3341L1.5 36.2701C-0.5 38.2871 -0.5 41.5501 1.5 43.5671L36.434 78.4901C36.9123 78.9689 37.4803 79.3487 38.1054 79.6079C38.7306 79.867 39.4007 80.0004 40.0775 80.0004C40.7543 80.0004 41.4244 79.867 42.0496 79.6079C42.6747 79.3487 43.2427 78.9689 43.721 78.4901L78.488 43.7241C78.9675 43.2459 79.3479 42.6778 79.6075 42.0523C79.867 41.4268 80.0006 40.7563 80.0006 40.0791C80.0006 39.4019 79.867 38.7314 79.6075 38.1059C79.3479 37.4804 78.9665 36.9123 78.487 36.4341Z" fill="#868484"/>
</g>
<defs>
<clipPath id="clip0_3851_233">
<rect width="80" height="80" fill="white"/>
</clipPath>
</defs>
</svg>
