<svg width="80" height="80" viewBox="0 0 80 80" fill="none" xmlns="http://www.w3.org/2000/svg">
<g clip-path="url(#clip0_3851_224)">
<path d="M71.563 22.75C74.363 27.873 75.957 33.75 75.957 40C75.957 53.263 68.77 64.853 58.08 71.083L69.063 39.327C71.113 34.193 71.797 30.09 71.797 26.447C71.797 25.097 71.71 23.847 71.563 22.747V22.75ZM44.96 23.097C47.117 22.997 49.067 22.747 49.067 22.747C51.007 22.497 50.78 19.647 48.843 19.75C48.843 19.75 42.993 20.2 39.243 20.2C35.697 20.2 29.743 19.7 29.743 19.7C27.793 19.6 27.54 22.55 29.493 22.65C29.493 22.65 31.293 22.853 33.243 22.95L38.843 38.3L30.943 61.9L17.847 23C20.01 22.9 21.96 22.667 21.96 22.667C23.91 22.417 23.68 19.567 21.743 19.68C21.743 19.68 15.923 20.14 12.163 20.14C11.497 20.14 10.703 20.113 9.863 20.09C16.37 10.5 27.45 4.05 40 4.05C49.363 4.05 57.883 7.623 64.287 13.493C64.133 13.483 63.983 13.463 63.817 13.463C60.283 13.463 57.777 16.54 57.777 19.843C57.777 22.81 59.487 25.32 61.31 28.28C62.68 30.68 64.277 33.757 64.277 38.203C64.277 41.253 63.097 44.85 61.54 49.8L57.957 61.75L44.957 23.05L44.96 23.097ZM40 75.947C36.47 75.947 33.063 75.437 29.84 74.49L40.63 43.137L51.68 73.427C51.76 73.603 51.847 73.763 51.94 73.923C48.1032 75.2693 44.0661 75.9557 40 75.953V75.947ZM4.037 40C4.037 34.787 5.157 29.833 7.153 25.367L24.3 72.363C12.313 66.533 4.04 54.237 4.037 40ZM40 0C17.95 0 0 17.95 0 40C0 62.05 17.95 80 40 80C62.05 80 80 62.05 80 40C80 17.95 62.05 0 40 0Z" fill="#868484"/>
</g>
<defs>
<clipPath id="clip0_3851_224">
<rect width="80" height="80" fill="white"/>
</clipPath>
</defs>
</svg>
