<svg width="80" height="80" viewBox="0 0 80 80" fill="none" xmlns="http://www.w3.org/2000/svg">
<g clip-path="url(#clip0_3851_220)">
<path d="M0 0H80V80H0V0ZM73.447 60.92C72.863 57.27 70.487 54.203 63.437 51.343C60.983 50.193 58.257 49.393 57.447 47.543C57.143 46.443 57.097 45.843 57.293 45.193C57.793 43.04 60.343 42.393 62.343 42.993C63.643 43.393 64.843 44.393 65.597 45.993C69.043 43.74 69.043 43.74 71.447 42.243C70.547 40.843 70.1 40.24 69.493 39.643C67.393 37.293 64.597 36.093 60.047 36.197L57.697 36.493C55.443 37.043 53.297 38.243 51.997 39.843C48.197 44.147 49.293 51.647 53.893 54.747C58.443 58.147 65.097 58.893 65.947 62.097C66.747 65.997 63.047 67.247 59.393 66.797C56.69 66.197 55.193 64.843 53.543 62.343L47.443 65.847C48.143 67.447 48.943 68.143 50.143 69.543C55.943 75.397 70.443 75.097 73.047 66.197C73.143 65.897 73.847 63.847 73.293 60.697L73.447 60.92ZM43.503 36.77H36.01C36.01 43.23 35.98 49.65 35.98 56.12C35.98 60.227 36.19 63.997 35.52 65.157C34.42 67.453 31.587 67.16 30.3 66.757C28.98 66.103 28.31 65.203 27.533 63.907C27.323 63.557 27.167 63.253 27.11 63.253L21.027 67.003C22.043 69.103 23.527 70.91 25.44 72.06C28.29 73.76 32.12 74.31 36.13 73.41C38.74 72.657 40.99 71.107 42.167 68.707C43.867 65.607 43.507 61.807 43.49 57.553C43.53 50.707 43.49 43.857 43.49 36.957L43.503 36.77Z" fill="#868484"/>
</g>
<defs>
<clipPath id="clip0_3851_220">
<rect width="80" height="80" fill="white"/>
</clipPath>
</defs>
</svg>
