<svg width="90" height="82" viewBox="0 0 90 82" fill="none" xmlns="http://www.w3.org/2000/svg">
<g clip-path="url(#clip0_3851_222)">
<path d="M45 32.9754C42.8727 32.9754 40.8325 33.8205 39.3283 35.3247C37.8241 36.8289 36.979 38.8691 36.979 40.9964C36.979 43.1237 37.8241 45.1639 39.3283 46.6681C40.8325 48.1723 42.8727 49.0174 45 49.0174C47.1273 49.0174 49.1675 48.1723 50.6717 46.6681C52.1759 45.1639 53.021 43.1237 53.021 40.9964C53.021 38.8691 52.1759 36.8289 50.6717 35.3247C49.1675 33.8205 47.1273 32.9754 45 32.9754ZM22.53 56.9524L20.76 56.5024C7.568 53.1694 0 47.5104 0 40.9824C0 34.4524 7.567 28.7944 20.76 25.4604L22.53 25.0144L23.029 26.7694C24.561 32.0014 26.299 36.4514 28.369 40.7094L28.14 40.1864L28.519 40.9854L28.14 41.7844C26.294 45.5234 24.555 49.9734 23.186 54.5834L23.029 55.2014L22.53 56.9524ZM19.939 29.5594C9.91 32.3754 3.758 36.6844 3.758 40.9814C3.758 45.2754 9.911 49.5834 19.938 52.4044C21.378 47.8484 22.881 44.0664 24.614 40.4144L24.371 40.9814C22.877 37.8934 21.374 34.1114 20.121 30.2164L19.939 29.5594ZM67.47 56.9524L66.971 55.1934C65.442 49.9664 63.702 45.5174 61.628 41.2614L61.856 41.7804L61.478 40.9814L61.856 40.1824C63.701 36.4454 65.441 31.9954 66.812 27.3864L66.972 26.7654L67.47 25.0104L69.244 25.4564C82.433 28.7904 90 34.4484 90 40.9814C90 47.5134 82.433 53.1694 69.244 56.5024L67.47 56.9524ZM65.63 40.9814C67.43 44.8774 68.918 48.7064 70.062 52.4034C80.093 49.5834 86.243 45.2754 86.243 40.9814C86.243 36.6844 80.09 32.3794 70.063 29.5594C68.626 34.1114 67.123 37.8934 65.389 41.5444L65.63 40.9814ZM19.913 29.5404L19.413 27.7884C15.706 14.7174 16.83 5.34941 22.5 2.07941C28.061 -1.13059 36.99 2.66141 46.346 12.2644L47.621 13.5744L46.346 14.8824C43.1005 18.2543 40.1272 21.8779 37.454 25.7194L37.264 26.0094L36.757 26.7324L35.877 26.8074C30.604 27.2314 25.762 28.0414 21.07 29.2264L21.682 29.0954L19.912 29.5414L19.913 29.5404ZM27.023 4.67741C26.017 4.67741 25.129 4.89541 24.379 5.32641C20.651 7.47541 19.991 14.9454 22.56 25.0254C25.964 24.2234 30.1 23.5594 34.316 23.1734L34.684 23.1464C37.054 19.7784 39.6436 16.5704 42.436 13.5434L42.379 13.6064C36.529 7.91041 30.99 4.67741 27.023 4.67741ZM62.98 81.0354C62.976 81.0354 62.976 81.0354 62.98 81.0354C57.637 81.0354 50.774 77.0114 43.653 69.6984L42.378 68.3904L43.653 67.0814C46.8975 63.7087 49.8695 60.084 52.541 56.2414L52.731 55.9514L53.238 55.2274L54.115 55.1524C59.389 54.7314 64.233 53.9224 68.928 52.7384L68.316 52.8684L70.086 52.4224L70.589 54.1774C74.29 67.2424 73.169 76.6144 67.499 79.8804C66.1217 80.6646 64.5586 81.0633 62.974 81.0344L62.98 81.0354ZM47.62 68.3564C53.47 74.0524 59.01 77.2854 62.976 77.2854H62.98C63.982 77.2854 64.874 77.0674 65.62 76.6364C69.348 74.4874 70.012 67.0134 67.439 56.9334C64.032 57.7364 59.895 58.4014 55.677 58.7854L55.312 58.8124C52.9446 62.1825 50.3559 65.3916 47.563 68.4184L47.62 68.3564ZM70.087 29.5404L68.317 29.0934C64.231 28.0364 59.387 27.2264 54.427 26.8264L54.115 26.8064L53.238 26.7314L52.732 26.0074C49.86 21.8604 46.877 18.2274 43.627 14.8544L43.653 14.8814L42.378 13.5724L43.653 12.2634C53.006 2.66441 61.93 -1.12659 67.5 2.07941C73.17 5.34941 74.295 14.7164 70.59 27.7854L70.087 29.5404ZM55.312 23.1464C59.594 23.5364 63.662 24.1704 67.439 25.0254C70.012 14.9454 69.348 7.47541 65.62 5.32641C61.915 3.18541 54.952 6.46641 47.62 13.6064C50.3137 16.5275 52.8178 19.6178 55.117 22.8584L55.312 23.1464ZM27.022 81.0354H26.892C25.3357 81.0381 23.806 80.6319 22.456 79.8574L22.499 79.8804C16.829 76.6144 15.704 67.2464 19.413 54.1774L19.908 52.4224L21.678 52.8694C26.009 53.9594 30.787 54.7294 35.872 55.1524L36.752 55.2274L37.255 55.9514C40.131 60.0994 43.115 63.7334 46.365 67.1094L46.338 67.0814L47.613 68.3904L46.338 69.6984C39.22 77.0114 32.358 81.0354 27.022 81.0354ZM22.56 56.9334C19.988 67.0134 20.651 74.4874 24.379 76.6364C28.08 78.7474 35.04 75.4924 42.379 68.3564C39.6854 65.4338 37.1804 62.3429 34.879 59.1024L34.684 58.8124C30.102 58.4014 25.967 57.7374 21.931 56.8124L22.561 56.9334H22.56ZM45 59.2894C41.914 59.2894 38.741 59.1544 35.565 58.8924L34.684 58.8174L34.178 58.0934C32.647 55.9344 30.973 53.3374 29.406 50.6704L29.116 50.1364C27.843 48.0044 26.385 45.2664 25.038 42.4644L24.743 41.7814L24.368 40.9824L24.743 40.1834C26.384 36.6994 27.842 33.9614 29.405 31.2934L29.115 31.8284C30.6921 29.1074 32.3813 26.4527 34.178 23.8714L34.684 23.1474L35.565 23.0724C38.392 22.8184 41.68 22.6724 45.002 22.6724C48.324 22.6724 51.612 22.8184 54.86 23.1024L54.439 23.0724L55.316 23.1474L55.819 23.8714C59.128 28.5564 62.272 33.9034 64.965 39.5084L65.258 40.1834L65.636 40.9824L65.258 41.7814C62.282 48.0574 59.138 53.4054 55.585 58.4434L55.819 58.0934L55.316 58.8174L54.439 58.8924C51.2994 59.1536 48.1504 59.286 45 59.2894ZM36.761 55.2244C42.311 55.6414 47.689 55.6414 53.242 55.2244C56.066 51.1604 58.806 46.4944 61.194 41.6244L61.477 40.9824C58.815 35.4754 56.073 30.8094 53.006 26.3854L53.239 26.7394C50.773 26.5414 47.899 26.4274 45 26.4274C42.1 26.4274 39.228 26.5414 36.385 26.7634L36.761 26.7394C33.925 30.8094 31.183 35.4764 28.801 40.3514L28.522 40.9824C31.197 46.4944 33.94 51.1594 37 55.5884L36.761 55.2244Z" fill="#868484"/>
</g>
<defs>
<clipPath id="clip0_3851_222">
<rect width="90" height="82" fill="white"/>
</clipPath>
</defs>
</svg>
