<svg width="83" height="80" viewBox="0 0 83 80" fill="none" xmlns="http://www.w3.org/2000/svg">
<path d="M5.27381 18.7983C-2.07619 29.3593 -1.16619 43.0963 4.45381 54.3113C4.58181 54.5853 4.72381 54.8443 4.86181 55.1043C4.94181 55.2843 5.03181 55.4503 5.12881 55.6203C5.17381 55.7173 5.23581 55.8173 5.29181 55.9073C5.38181 56.0873 5.47881 56.2613 5.57181 56.4343L6.11581 57.3513C6.21581 57.5213 6.31281 57.6873 6.42781 57.8573C6.61781 58.1823 6.84281 58.5043 7.03981 58.8303C7.12981 58.9653 7.21381 59.1003 7.31381 59.2353C7.69881 59.8383 8.05281 60.3393 8.42581 60.8253L8.38681 60.7723C8.65681 61.1423 8.92681 61.5023 9.21781 61.8623C9.31181 61.9953 9.41581 62.1263 9.51281 62.2583L10.2778 63.1893C10.3708 63.2973 10.4648 63.4213 10.5648 63.5323C10.9048 63.9413 11.2648 64.3393 11.6248 64.7403C11.6248 64.7473 11.6348 64.7543 11.6418 64.7653C12.0898 65.3283 12.5708 65.8263 13.0958 66.2753L13.1098 66.2883C13.3868 66.5723 13.6648 66.8563 13.9588 67.1333L14.3088 67.4693C14.6928 67.8293 15.0768 68.1893 15.4818 68.5363C15.4888 68.5363 15.4918 68.5423 15.4998 68.5463L15.6968 68.7193C16.0498 69.0273 16.4068 69.3354 16.7698 69.6193L17.2028 69.9833C17.4978 70.2183 17.8028 70.4433 18.1028 70.6753L18.5738 71.0353C18.8958 71.2783 19.2388 71.5173 19.5678 71.7523C19.6888 71.8393 19.8108 71.9253 19.9348 72.0053L20.0348 72.0853L21.0088 72.7253L21.4238 73.0023C21.9258 73.3213 22.4315 73.6343 22.9408 73.9413C23.0858 74.0133 23.2308 74.0933 23.3668 74.1763C23.7408 74.3913 24.1278 74.6093 24.5058 74.8103C24.7138 74.9273 24.9278 75.0283 25.1428 75.1353C25.4028 75.2803 25.6728 75.4223 25.9498 75.5683C26.0248 75.5913 26.0888 75.6183 26.1498 75.6503L26.1438 75.6483C26.2578 75.7003 26.3648 75.7553 26.4758 75.8103C26.8918 76.0183 27.3238 76.2153 27.7748 76.4133C27.8578 76.4483 27.9478 76.4823 28.0378 76.5313C28.5358 76.7493 29.0348 76.9563 29.5508 77.1613C29.6688 77.1953 29.7928 77.2543 29.9148 77.2993C30.3818 77.4763 30.8628 77.6563 31.3378 77.8263L31.5108 77.8883C32.0408 78.0683 32.5628 78.2413 33.1008 78.4083C33.2248 78.4423 33.3528 78.4873 33.4838 78.5223C34.0348 78.6883 34.5678 78.8853 35.1218 78.9923C70.6488 85.4683 80.9738 57.6323 80.9738 57.6323C72.2998 68.9273 56.9098 71.9043 42.3308 68.5903C41.7908 68.4653 41.2508 68.2923 40.7068 68.1333C39.7168 67.8473 39.0628 67.6333 38.4168 67.4053L38.7438 67.5053L38.5288 67.4233C38.0588 67.2633 37.6048 67.0873 37.1438 66.9103C37.032 66.8623 36.9182 66.8189 36.8028 66.7803L36.7628 66.7683C36.2607 66.5663 35.7623 66.3553 35.2678 66.1353C35.1598 66.1003 35.0698 66.0523 34.9628 66.0103C34.3811 65.7563 33.8049 65.4895 33.2348 65.2103L33.7128 65.4213C33.5881 65.3663 33.4657 65.3062 33.3458 65.2413C33.0198 65.0893 32.6948 64.9163 32.3758 64.7503C32.1328 64.6356 31.8937 64.5129 31.6588 64.3823L31.7288 64.4173C31.3368 64.2093 30.9458 63.9843 30.5548 63.7703C30.4368 63.6873 30.3018 63.6173 30.1668 63.5413C29.5808 63.2002 29.0027 62.8458 28.4328 62.4783L28.6498 62.6103C28.503 62.5197 28.3595 62.4236 28.2198 62.3223L28.2418 62.3363C27.7938 62.0603 27.4418 61.8263 27.0978 61.5803L27.1608 61.6233C27.0408 61.5433 26.9288 61.4573 26.8048 61.3703C26.4319 61.1139 26.0648 60.8492 25.7038 60.5763L25.7868 60.6363C25.6408 60.5183 25.4848 60.4073 25.3298 60.2903C25.0248 60.0503 24.7168 59.8223 24.4118 59.5703L24.0028 59.2443C23.5528 58.8803 23.1758 58.5613 22.8058 58.2363L22.8458 58.2713C22.8076 58.2337 22.7661 58.1995 22.7218 58.1693L22.7188 58.1673L21.5168 57.0733L21.1708 56.7473C20.8868 56.4603 20.5958 56.1833 20.3048 55.8993L19.9688 55.5533C19.6108 55.1968 19.2613 54.8317 18.9208 54.4583L18.8988 54.4343L18.8468 54.3793C18.4798 53.9773 18.1238 53.5693 17.7638 53.1533C17.6698 53.0463 17.5838 52.9313 17.4868 52.8173L16.7038 51.8573C16.3508 51.4111 16.0048 50.9594 15.6658 50.5023L15.5258 50.3073C7.44081 39.2673 4.51581 24.0323 10.9868 11.5363L5.27381 18.7983ZM28.0828 9.90334C22.7528 17.5523 23.0548 27.7803 27.2028 35.8693C27.9045 37.2671 28.7101 38.6102 29.6128 39.8873L29.5468 39.7893C30.3438 40.9313 31.2228 42.2823 32.2898 43.2033C32.6598 43.6253 33.0618 44.0333 33.4808 44.4463L33.7928 44.7583C34.1868 45.1383 34.5928 45.5123 35.0048 45.8833L35.0558 45.9283C35.4728 46.2943 35.9398 46.6813 36.4158 47.0573L36.4898 47.1123C36.6078 47.1923 36.7078 47.2853 36.8218 47.3653C37.3068 47.7393 37.7948 48.0993 38.3008 48.4553L38.3528 48.4873C38.5678 48.6433 38.7958 48.7853 39.0378 48.9373C39.1358 48.9993 39.2458 49.0823 39.3498 49.1453C39.7168 49.3803 40.0768 49.6023 40.4478 49.8273C40.5068 49.8513 40.5578 49.8823 40.6138 49.9073C40.9258 50.0973 41.2648 50.2803 41.5908 50.4503C41.7048 50.5203 41.8148 50.5713 41.9328 50.6373C42.1648 50.7513 42.3928 50.8733 42.6148 50.9903L42.7258 51.0393C43.1938 51.2673 43.6718 51.4823 44.1388 51.6973C44.2568 51.7423 44.3568 51.7803 44.4578 51.8283C44.8418 51.9943 45.2328 52.1543 45.6178 52.3033C45.7898 52.3613 45.9528 52.4313 46.1158 52.4833C46.4688 52.6143 46.8398 52.7363 47.1898 52.8573L47.6738 53.0133C48.1798 53.1683 48.6918 53.3733 49.2248 53.4593C76.6498 58.0053 82.9998 36.8843 82.9998 36.8843C77.2828 45.1113 66.2198 49.0313 54.4298 45.9693C53.8412 45.8218 53.2582 45.653 52.6818 45.4633L52.8788 45.5193C52.7118 45.4743 52.5668 45.4223 52.4078 45.3743C52.0478 45.2493 51.6768 45.1283 51.3278 44.9963L50.8278 44.8093C50.4408 44.6543 50.0458 44.5093 49.6678 44.3423C49.5508 44.2903 49.4438 44.2553 49.3538 44.2033C48.8688 43.9853 48.3808 43.7713 47.9098 43.5393L47.1958 43.1693L46.7838 42.9613C46.4658 42.7943 46.1718 42.6213 45.8668 42.4413C45.7897 42.405 45.7149 42.3639 45.6428 42.3183L45.6528 42.3233C45.2848 42.0953 44.9038 41.8733 44.5538 41.6383C44.4368 41.5723 44.3288 41.4923 44.2178 41.4233L43.4978 40.9533C42.9998 40.6063 42.5108 40.2323 42.0198 39.8723C41.9088 39.7723 41.8018 39.6883 41.6938 39.5983C36.5108 35.5233 32.4208 29.9513 30.4818 23.6423C28.4398 17.0843 28.8898 9.73034 32.4178 3.76034L28.0828 9.90334ZM47.2628 3.25134C44.1178 7.86334 43.8168 13.5913 45.9808 18.6773C48.2808 24.0793 52.9828 28.3213 58.4608 30.3293C58.6848 30.4163 58.9038 30.4893 59.1358 30.5713L59.4398 30.6653C59.7588 30.7653 60.0808 30.8833 60.4098 30.9553C75.5618 33.8783 79.6618 23.1753 80.7668 21.6033C77.1588 26.7833 71.1098 28.0263 63.6888 26.2233C63.0434 26.0645 62.4082 25.8664 61.7868 25.6303L61.9018 25.6683C61.1287 25.4 60.3718 25.0872 59.6348 24.7313L59.7648 24.7893C58.4263 24.141 57.1551 23.3618 55.9698 22.4633L56.0258 22.5033C49.3778 17.4703 45.2608 7.85634 49.5958 0.0273438L47.2628 3.25134Z" fill="#868484"/>
</svg>
