<svg width="80" height="80" viewBox="0 0 80 80" fill="none" xmlns="http://www.w3.org/2000/svg">
<g clip-path="url(#clip0_3910_61)">
<path d="M0 40V80H80V0H0V40ZM64.47 36.8134C66.5034 37.32 68.05 38.2234 69.4734 39.6967C70.21 40.4834 71.3034 41.9167 71.39 42.2634C71.4166 42.3634 67.9366 44.6967 65.83 46.0067C65.7534 46.0567 65.4466 45.7267 65.1066 45.2201C64.0733 43.7201 62.9966 43.0734 61.3466 42.9601C58.92 42.7934 57.36 44.0634 57.3733 46.1834C57.3716 46.2205 57.3706 46.264 57.3706 46.3077C57.3706 46.8111 57.4975 47.285 57.7209 47.699L57.7133 47.6834C58.2466 48.7868 59.2399 49.4501 62.3466 50.7934C68.0766 53.2601 70.5266 54.8834 72.05 57.1934C73.75 59.7701 74.1334 63.8868 72.9766 66.9468C71.71 70.2734 68.56 72.5334 64.1266 73.2802C62.7566 73.5235 59.5066 73.4868 58.0333 73.2202C54.8199 72.6468 51.7733 71.0602 49.8933 68.9768C49.1566 68.1668 47.7199 66.0434 47.8099 65.8934C47.8466 65.8401 48.1766 65.6368 48.5433 65.4234C48.9033 65.2201 50.2466 64.4434 51.5166 63.7068L53.8166 62.3734L54.3 63.0868C54.9734 64.1134 56.4434 65.5234 57.3334 65.9934C59.8867 67.3401 63.39 67.1501 65.1167 65.6001C65.7589 65.0566 66.1638 64.2501 66.1638 63.349C66.1638 63.2966 66.1624 63.2445 66.1598 63.1929L66.1601 63.2002C66.1601 62.2735 66.0434 61.8668 65.5601 61.1668C64.9401 60.2802 63.6701 59.5334 60.0634 57.9668C55.9368 56.1902 54.1601 55.0868 52.5334 53.3334C51.5525 52.2198 50.7975 50.8817 50.356 49.4081L50.3368 49.3334C50.0334 48.2034 49.9568 45.3701 50.1968 44.2301C51.0468 40.2401 54.0568 37.4634 58.4002 36.6367C59.8102 36.3701 63.0868 36.4701 64.4702 36.8134H64.47ZM45.69 40.1534L45.7166 43.43H35.3V73.0166H27.9334V43.43H17.5267V40.2166C17.5267 38.4366 17.5634 36.95 17.6134 36.9166C17.6534 36.8633 23.99 36.8366 31.67 36.85L45.6534 36.89L45.69 40.1534Z" fill="#868484"/>
</g>
<defs>
<clipPath id="clip0_3910_61">
<rect width="80" height="80" fill="white"/>
</clipPath>
</defs>
</svg>
