<svg width="107" height="61" viewBox="0 0 107 61" fill="none" xmlns="http://www.w3.org/2000/svg">
<mask id="path-1-outside-1_3801_62" maskUnits="userSpaceOnUse" x="3.88281" y="-0.421875" width="103" height="60" fill="black">
<rect fill="white" x="3.88281" y="-0.421875" width="103" height="60"/>
<path d="M51.2283 2.60833C50.3687 3.51371 49.6238 4.36179 49.5894 4.51077C49.5436 4.65976 49.6009 4.99212 49.6925 5.25571C50.6552 7.83432 51.1939 13.5989 50.9303 18.5728C50.7469 22.0453 50.6667 23.0997 50.5865 23.0997C50.5406 23.0997 50.449 22.3433 50.3687 21.4035C50.0364 17.1861 49.131 14.1834 47.7213 12.6477C46.6669 11.4902 45.4062 11.1922 44.3748 11.8455C43.0453 12.705 41.6586 14.7794 40.6042 17.4955L40.2145 18.4811L39.6873 17.6101C38.5412 15.6847 37.0284 14.0688 33.3839 10.814C30.7823 8.51048 28.983 6.64242 27.7337 4.95773C27.1722 4.2128 26.645 3.57101 26.5647 3.53663C26.4731 3.51371 25.751 3.98359 24.9373 4.62538C23.2526 5.93187 22.6795 6.32153 20.5478 7.62803C18.4505 8.92306 9.87788 14.0459 9.82057 14.0459C9.79765 14.0459 9.77473 13.9542 9.77473 13.8396C9.76327 13.5531 8.55989 10.7338 8.33067 10.4817C8.22753 10.3671 8.04415 10.2639 7.92955 10.2639C7.72325 10.2639 5.68324 12.281 5.1102 13.0374C4.76638 13.5073 4.80076 13.8969 5.29357 14.6762C5.47694 14.9971 5.84369 15.8108 6.08436 16.5099C6.921 18.8593 7.44819 19.7761 7.96393 19.7761C8.26191 19.7761 8.82349 19.2375 10.1644 17.6789C12.1242 15.3982 12.9837 14.7335 18.4276 11.3641C20.0206 10.3785 23.3901 8.59071 23.4818 8.69385C23.5047 8.71677 23.4818 9.09497 23.4245 9.53047C22.8285 13.7594 21.4876 30.2396 21.4647 33.6433C21.4532 34.2393 21.4189 34.9384 21.3616 35.1905C21.2928 35.6145 21.1896 35.3509 19.8946 31.4085C18.5078 27.1796 17.3159 23.4206 16.4334 20.4294C15.8948 18.6416 15.5051 17.7591 15.1727 17.656C14.8289 17.5528 14.4851 17.8279 12.9723 19.4667C11.6314 20.8993 11.5855 20.9795 11.6543 21.3691C11.6887 21.5984 12.1815 22.71 12.7431 23.8561C13.9808 26.343 14.4622 27.4317 15.3103 29.6322C16.3303 32.291 19.5851 41.5167 21.0636 45.9404C21.522 47.3042 21.9575 48.5076 22.0377 48.5993C22.3586 48.9889 22.6795 48.8056 23.6422 47.648C24.158 47.0406 24.7081 46.3072 24.88 46.0321L25.178 45.5279L24.9144 43.6254C24.4789 40.4394 24.2382 38.0327 24.1465 36.1188C24.0663 34.3539 24.0778 34.2966 24.284 34.3883C25.0519 34.7092 27.069 35.3624 27.3326 35.3624C27.5045 35.3624 27.665 35.4082 27.6994 35.4541C27.7337 35.5114 27.9171 36.9669 28.1005 38.6974C28.2953 40.4279 28.5016 42.296 28.5704 42.869C28.6391 43.4306 28.8454 45.2872 29.0288 46.9948C29.2122 48.6909 29.3955 50.3183 29.4414 50.6048L29.5102 51.132L28.387 51.5102C25.8198 52.3812 21.4762 54.2378 21.0292 54.6504C20.4562 55.1776 19.757 57.0915 19.929 57.6301C20.0436 57.9969 20.4447 58.5011 20.6739 58.5699C20.8917 58.6386 21.6825 58.2719 22.6452 57.6645C24.7883 56.2892 29.8196 54.2378 34.0028 53.0115C41.4408 50.8455 49.3716 49.8255 56.3856 50.1464C66.196 50.5819 72.3963 51.9343 76.6597 54.5702C77.5536 55.1317 77.8516 55.1776 78.3788 54.8567C79.1811 54.3753 80.2584 53.023 80.2584 52.5187C80.2584 52.3354 78.5278 51.0633 77.737 50.6621C77.1296 50.3527 74.1269 49.3786 73.4851 49.2754C73.2329 49.2296 73.0381 49.1952 73.0381 49.1837C73.0381 49.1837 73.1183 48.966 73.21 48.7139C73.4507 48.0377 73.4163 47.4303 73.0954 46.4676C71.5482 41.9522 69.3134 34.0559 68.8549 31.4544L68.7747 31.0303L69.3363 31.1335C69.6457 31.1908 70.1271 31.3054 70.4021 31.3856C70.8835 31.5231 70.8949 31.5346 71.1127 32.3254C72.0869 35.9698 73.4736 40.4738 74.9406 44.8173C76.0294 48.0148 76.2471 48.4274 76.9004 48.4274C77.1525 48.4159 77.3703 48.244 77.9892 47.522C79.1238 46.204 79.1008 46.3186 78.5966 44.4506C78.0579 42.4221 77.439 40.2216 76.0867 35.5458C75.4792 33.46 75.0208 31.7409 75.0437 31.7065C75.0781 31.6836 75.5824 31.7638 76.1669 31.9013C76.7399 32.0274 77.8172 32.2222 78.5393 32.3254C79.2613 32.4171 80.1896 32.5546 80.6022 32.6233C81.3701 32.7494 82.7339 33.2307 82.9746 33.46C83.1694 33.6433 82.4015 35.5343 80.7856 38.8349C80.0521 40.3363 79.4561 41.6313 79.4561 41.7115C79.4561 42.0439 80.1782 42.7544 81.5764 43.7973C83.8571 45.5049 84.8083 46.353 87.4214 49.0118C89.6333 51.2696 90.3209 52.0259 91.7421 53.8138C92.2807 54.49 92.8881 54.9598 93.2205 54.9598C93.6331 54.9598 95.9138 52.8511 96.6702 51.7738L97.014 51.281L96.4754 50.2496C94.8365 47.0865 92.7621 38.09 92.1776 31.6377C91.7764 27.1682 91.7535 25.048 92.0286 18.7332L92.2234 14.1834L94.229 13.6562C95.3407 13.3697 96.418 13.1061 96.6243 13.0603L97.0025 12.9915L96.7619 13.4843C96.3149 14.3553 95.7533 15.9254 95.57 16.8193C95.3522 17.8966 95.3293 19.8334 95.547 20.7159C95.8794 22.1485 97.5871 24.4749 100.487 27.4432C102.435 29.4488 103.191 30.0906 103.581 30.0906C103.982 30.0906 105.243 28.6809 105.243 28.234C105.243 28.1194 104.796 27.5463 104.257 26.9619C99.2603 21.6327 97.7704 17.8393 99.4895 14.8481C99.65 14.5616 100.487 13.5989 101.358 12.705C103.203 10.7911 103.363 10.4931 102.905 9.80552C102.744 9.56485 102.412 9.15227 102.16 8.88868C101.759 8.46464 101.656 8.4188 101.381 8.48756C96.7275 9.67945 86.7796 11.3068 82.4245 11.5819C78.4476 11.834 75.3188 10.4244 73.9091 7.73117C73.3819 6.72265 73.1871 6.48198 72.9235 6.48198C72.6714 6.48198 69.6228 9.75968 69.5311 10.115C69.3477 10.8026 70.9866 12.6019 72.9808 13.9313C73.6799 14.3897 74.5051 14.9513 74.8145 15.169C77.1181 16.8193 80.3844 19.9022 80.82 20.842C81.4159 22.1026 81.2555 22.9965 80.2125 24.1082C79.3988 24.9677 78.459 25.6324 76.4763 26.7097C74.6541 27.7068 74.4134 27.8329 74.3561 27.7756C74.2988 27.7183 74.0925 25.3116 73.8977 22.1599C73.806 20.6586 73.6684 19.0427 73.5997 18.5613C73.1756 15.4785 71.8806 12.9113 70.9293 13.278C70.7116 13.3697 67.239 17.2778 66.7691 17.9654C66.5513 18.3092 66.3679 18.4696 66.345 18.378C66.3106 18.2977 66.1846 17.5872 66.047 16.7964C65.5542 13.874 65.325 12.7852 64.7864 10.6651C63.7434 6.63096 63.5257 6.02356 63.1131 6.02356C63.0329 6.02356 62.2421 6.81433 61.3596 7.76555C60.4657 8.72823 59.4686 9.77114 59.1133 10.0691C58.7695 10.3785 58.4829 10.6994 58.4829 10.8026C58.4829 10.9057 58.7695 11.3183 59.1247 11.7309C59.48 12.1435 59.8124 12.5904 59.8582 12.7279C60.076 13.301 60.0989 14.3668 59.9155 16.5672C59.6519 19.9251 59.5717 20.5555 58.8841 24.6468C57.9214 30.2969 58.0589 29.7238 57.6463 29.8155C57.3827 29.8614 56.9701 30.2166 56.2252 30.996C55.6407 31.6034 55.1249 32.1878 55.0906 32.3025C54.9874 32.6119 55.3198 33.0245 56.2023 33.6662C56.6607 33.9986 56.993 34.331 56.993 34.4456C56.993 34.5602 56.8326 35.3624 56.6378 36.2334C56.3054 37.7462 56.271 37.8493 55.847 38.239C55.6063 38.4567 54.953 38.9266 54.3915 39.259C53.8413 39.6028 52.9359 40.1758 52.3858 40.5425C51.8357 40.9093 51.3429 41.2072 51.2971 41.2072C51.2397 41.2072 51.32 40.2675 51.4575 39.11C51.6065 37.9639 52.0305 34.6289 52.4087 31.695C53.5548 22.6642 53.8413 20.097 54.4258 13.4729C54.678 10.6994 54.7009 6.28715 54.4831 4.76291C54.2998 3.46787 53.8528 1.87486 53.5434 1.35914C53.1422 0.717354 52.9589 0.820499 51.2283 2.60833ZM26.3126 10.6651C26.4501 10.7567 27.1149 11.4214 27.791 12.1435L29.0288 13.45L28.536 14.023C28.2724 14.3439 27.5847 14.9971 27.0002 15.467C25.5447 16.6589 25.5218 16.7162 26.0032 17.9195C26.5533 19.2948 26.5762 19.4896 27.3326 30.0104C27.4014 30.996 27.4358 31.8326 27.4128 31.8555C27.3785 31.8899 27.0346 31.8326 26.6335 31.7294L25.9 31.5461L25.0061 32.5087L24.1121 33.4714L24.1007 31.3627C24.1007 28.1194 24.433 23.3977 25.0863 17.484C25.5562 13.1749 25.9115 10.4931 26.0146 10.4931C26.0375 10.4931 26.1751 10.5734 26.3126 10.6651ZM88.258 14.6991C88.1778 14.9857 88.1663 15.9598 88.2121 17.4267C88.258 18.6874 88.3153 20.544 88.3382 21.5525C88.5101 27.1567 88.6247 29.5519 88.9227 32.8411C89.4614 39.0183 90.5387 45.0465 91.6275 48.1179C91.765 48.4732 91.8452 48.7941 91.8223 48.817C91.7994 48.8399 90.0115 47.1552 87.8569 45.058C85.7137 42.9607 83.7654 41.127 83.5362 40.9666C83.158 40.7144 83.1236 40.6457 83.1236 40.1414C83.1236 39.8435 83.2038 39.4194 83.2955 39.1902C83.3872 38.9725 84.2582 37.4711 85.2209 35.8437C86.218 34.1934 87.0775 32.6119 87.2036 32.2451C87.3984 31.6034 87.3984 31.5804 87.1807 31.3398C86.493 30.5834 83.7539 29.9531 80.2125 29.7468C78.1267 29.6207 76.8202 29.4373 76.8202 29.2769C76.8202 29.2196 76.866 29.1737 76.9233 29.1737C77.0838 29.1737 79.3759 27.638 80.8314 26.5607C82.6995 25.1626 83.8341 24.0051 84.2926 23.0309C84.6364 22.2974 84.6708 22.1485 84.6708 21.0941C84.6708 20.0512 84.6364 19.8793 84.3155 19.2031C83.9373 18.4009 83.1121 17.3121 81.7024 15.765L80.82 14.7908L81.4388 14.6991C82.6766 14.5272 85.622 14.3095 86.9858 14.2866L88.3726 14.2751L88.258 14.6991ZM31.8711 15.891C32.6733 16.5901 33.785 17.5299 34.3466 17.9768C35.4812 18.8937 35.9855 19.5011 36.4783 20.5211C36.994 21.6098 37.0857 22.3777 36.8221 23.2487C36.2147 25.2084 33.2578 28.8872 31.3553 30.0562L30.7708 30.4115L30.7135 23.2945C30.6677 16.6245 30.6218 15.7306 30.3353 14.8138C30.3009 14.7106 30.3009 14.6189 30.3468 14.6189C30.3812 14.6189 31.0688 15.1919 31.8711 15.891ZM45.6927 17.9425C47.6296 21.69 48.0078 27.5463 46.7242 33.9871C46.4148 35.5572 45.7844 37.8608 45.6354 37.9525C45.4979 38.0327 44.6384 36.7147 44.0882 35.5458C42.9765 33.1964 42.3233 30.1135 42.2431 26.7556C42.1284 22.6871 42.7244 19.7532 44.1685 17.1517L44.6498 16.2922L44.9249 16.636C45.0739 16.8193 45.4177 17.4038 45.6927 17.9425ZM69.2331 20.0627C69.5197 21.0368 69.7832 22.7673 70.1729 26.1367C70.4938 29.0248 70.5626 28.7268 69.5197 29.2425C69.0268 29.4832 68.5913 29.7009 68.5569 29.7124C68.5111 29.7353 68.2704 28.6351 67.9954 27.2598C67.4223 24.2801 66.5055 19.4094 66.5055 19.2948C66.5055 19.2031 67.4338 19.1229 68.3392 19.1344L68.9695 19.1458L69.2331 20.0627ZM63.1704 22.8132C63.3538 23.5696 63.858 25.7814 64.2706 27.7412C64.6832 29.6895 65.1187 31.6721 65.2333 32.1191L65.4511 32.9557H64.9697C64.6144 32.9557 64.0758 32.7494 62.6432 32.0274C60.9814 31.2022 60.7866 31.0762 60.8324 30.8584C60.8668 30.7209 61.2335 28.8758 61.6461 26.767C62.4598 22.5954 62.7234 21.3462 62.7807 21.4035C62.8036 21.4265 62.9756 22.0568 63.1704 22.8132ZM39.9738 31.8211C40.6271 34.8352 41.3262 36.9325 42.8161 40.3706L43.2287 41.3104L42.9422 41.4823C42.7932 41.5854 42.415 41.6771 42.1055 41.6771C40.3749 41.723 38.7361 39.3736 38.3235 36.2449C38.0484 34.2737 38.1974 31.4315 38.6788 29.5176C39.0913 27.8099 39.1143 27.7985 39.4122 29.231C39.5612 29.9187 39.8134 31.0876 39.9738 31.8211ZM35.6646 29.7124C34.679 32.566 34.4956 36.6116 35.2176 39.4538C36.0886 42.8461 38.4495 44.8746 41.521 44.8746C43.6986 44.8746 45.2802 43.9692 46.6096 41.9751C47.3202 40.8978 47.5379 40.4394 48.2485 38.514C48.5235 37.7576 48.7184 37.2878 48.684 37.4826C48.6496 37.666 48.4548 38.8578 48.237 40.1185C47.3889 45.0121 47.3431 45.7227 47.8817 46.7656C48.0193 47.0521 48.111 47.3042 48.0766 47.3386C48.0422 47.373 47.8244 47.3959 47.5952 47.3959C46.9305 47.3959 42.6556 47.946 40.8792 48.2554C38.8163 48.6222 36.0199 49.241 34.1518 49.7568C33.338 49.986 32.6619 50.1464 32.6504 50.1235C32.6275 50.1006 32.5587 49.6192 32.4899 49.0577C32.3639 48.1294 32.3753 47.9346 32.5702 47.2469C32.8223 46.3874 32.8108 46.3988 33.4068 45.6081C33.8996 44.9434 33.9225 44.8631 33.6246 44.5996C33.4297 44.4276 33.3724 44.4276 32.765 44.6569C32.4097 44.7944 32.1003 44.8861 32.0774 44.8631C32.0315 44.8058 31.0803 33.6777 31.0917 33.2995C31.1032 33.0703 31.3553 32.8296 32.3753 32.0962C33.0744 31.5919 34.1403 30.7094 34.7477 30.125C35.3551 29.5405 35.8594 29.0706 35.8709 29.0591C35.8823 29.0591 35.7906 29.3571 35.6646 29.7124ZM60.7866 35.7177C62.6547 36.4053 62.8036 36.4397 64.5457 36.4397L66.2075 36.4511L66.792 38.514C67.1244 39.6486 67.9151 42.1814 68.5455 44.1411C69.1873 46.1123 69.7145 47.8543 69.7145 48.0148C69.7145 48.3815 69.703 48.3815 67.9954 48.0835C64.1904 47.4074 59.6519 47.1323 53.5777 47.1782C49.3258 47.224 48.7986 47.2125 49.0164 47.0636C49.1424 46.9604 50.3114 46.0092 51.595 44.9319C52.8901 43.8661 54.2539 42.7659 54.6321 42.4908C55.2854 42.0324 55.5948 41.8834 55.4573 42.1126C55.4115 42.1699 55.3083 42.6054 55.2052 43.0868C55.0447 43.8775 55.0447 44.0151 55.2052 44.5652C55.3083 44.8975 55.5375 45.3903 55.7324 45.6539C56.2825 46.4103 56.5117 46.353 57.7724 45.058L58.8268 43.9921V42.571C58.8382 40.3936 58.9414 39.8893 59.6176 38.7776C59.9385 38.2619 60.2021 37.792 60.2021 37.7347C60.2021 37.6774 60.0531 37.4367 59.8582 37.1961C59.6749 36.9554 59.5144 36.6804 59.5144 36.5658C59.5144 36.3824 59.7551 35.3624 59.7895 35.3624C59.8009 35.3624 60.2479 35.5228 60.7866 35.7177Z"/>
</mask>
<path d="M51.2283 2.60833C50.3687 3.51371 49.6238 4.36179 49.5894 4.51077C49.5436 4.65976 49.6009 4.99212 49.6925 5.25571C50.6552 7.83432 51.1939 13.5989 50.9303 18.5728C50.7469 22.0453 50.6667 23.0997 50.5865 23.0997C50.5406 23.0997 50.449 22.3433 50.3687 21.4035C50.0364 17.1861 49.131 14.1834 47.7213 12.6477C46.6669 11.4902 45.4062 11.1922 44.3748 11.8455C43.0453 12.705 41.6586 14.7794 40.6042 17.4955L40.2145 18.4811L39.6873 17.6101C38.5412 15.6847 37.0284 14.0688 33.3839 10.814C30.7823 8.51048 28.983 6.64242 27.7337 4.95773C27.1722 4.2128 26.645 3.57101 26.5647 3.53663C26.4731 3.51371 25.751 3.98359 24.9373 4.62538C23.2526 5.93187 22.6795 6.32153 20.5478 7.62803C18.4505 8.92306 9.87788 14.0459 9.82057 14.0459C9.79765 14.0459 9.77473 13.9542 9.77473 13.8396C9.76327 13.5531 8.55989 10.7338 8.33067 10.4817C8.22753 10.3671 8.04415 10.2639 7.92955 10.2639C7.72325 10.2639 5.68324 12.281 5.1102 13.0374C4.76638 13.5073 4.80076 13.8969 5.29357 14.6762C5.47694 14.9971 5.84369 15.8108 6.08436 16.5099C6.921 18.8593 7.44819 19.7761 7.96393 19.7761C8.26191 19.7761 8.82349 19.2375 10.1644 17.6789C12.1242 15.3982 12.9837 14.7335 18.4276 11.3641C20.0206 10.3785 23.3901 8.59071 23.4818 8.69385C23.5047 8.71677 23.4818 9.09497 23.4245 9.53047C22.8285 13.7594 21.4876 30.2396 21.4647 33.6433C21.4532 34.2393 21.4189 34.9384 21.3616 35.1905C21.2928 35.6145 21.1896 35.3509 19.8946 31.4085C18.5078 27.1796 17.3159 23.4206 16.4334 20.4294C15.8948 18.6416 15.5051 17.7591 15.1727 17.656C14.8289 17.5528 14.4851 17.8279 12.9723 19.4667C11.6314 20.8993 11.5855 20.9795 11.6543 21.3691C11.6887 21.5984 12.1815 22.71 12.7431 23.8561C13.9808 26.343 14.4622 27.4317 15.3103 29.6322C16.3303 32.291 19.5851 41.5167 21.0636 45.9404C21.522 47.3042 21.9575 48.5076 22.0377 48.5993C22.3586 48.9889 22.6795 48.8056 23.6422 47.648C24.158 47.0406 24.7081 46.3072 24.88 46.0321L25.178 45.5279L24.9144 43.6254C24.4789 40.4394 24.2382 38.0327 24.1465 36.1188C24.0663 34.3539 24.0778 34.2966 24.284 34.3883C25.0519 34.7092 27.069 35.3624 27.3326 35.3624C27.5045 35.3624 27.665 35.4082 27.6994 35.4541C27.7337 35.5114 27.9171 36.9669 28.1005 38.6974C28.2953 40.4279 28.5016 42.296 28.5704 42.869C28.6391 43.4306 28.8454 45.2872 29.0288 46.9948C29.2122 48.6909 29.3955 50.3183 29.4414 50.6048L29.5102 51.132L28.387 51.5102C25.8198 52.3812 21.4762 54.2378 21.0292 54.6504C20.4562 55.1776 19.757 57.0915 19.929 57.6301C20.0436 57.9969 20.4447 58.5011 20.6739 58.5699C20.8917 58.6386 21.6825 58.2719 22.6452 57.6645C24.7883 56.2892 29.8196 54.2378 34.0028 53.0115C41.4408 50.8455 49.3716 49.8255 56.3856 50.1464C66.196 50.5819 72.3963 51.9343 76.6597 54.5702C77.5536 55.1317 77.8516 55.1776 78.3788 54.8567C79.1811 54.3753 80.2584 53.023 80.2584 52.5187C80.2584 52.3354 78.5278 51.0633 77.737 50.6621C77.1296 50.3527 74.1269 49.3786 73.4851 49.2754C73.2329 49.2296 73.0381 49.1952 73.0381 49.1837C73.0381 49.1837 73.1183 48.966 73.21 48.7139C73.4507 48.0377 73.4163 47.4303 73.0954 46.4676C71.5482 41.9522 69.3134 34.0559 68.8549 31.4544L68.7747 31.0303L69.3363 31.1335C69.6457 31.1908 70.1271 31.3054 70.4021 31.3856C70.8835 31.5231 70.8949 31.5346 71.1127 32.3254C72.0869 35.9698 73.4736 40.4738 74.9406 44.8173C76.0294 48.0148 76.2471 48.4274 76.9004 48.4274C77.1525 48.4159 77.3703 48.244 77.9892 47.522C79.1238 46.204 79.1008 46.3186 78.5966 44.4506C78.0579 42.4221 77.439 40.2216 76.0867 35.5458C75.4792 33.46 75.0208 31.7409 75.0437 31.7065C75.0781 31.6836 75.5824 31.7638 76.1669 31.9013C76.7399 32.0274 77.8172 32.2222 78.5393 32.3254C79.2613 32.4171 80.1896 32.5546 80.6022 32.6233C81.3701 32.7494 82.7339 33.2307 82.9746 33.46C83.1694 33.6433 82.4015 35.5343 80.7856 38.8349C80.0521 40.3363 79.4561 41.6313 79.4561 41.7115C79.4561 42.0439 80.1782 42.7544 81.5764 43.7973C83.8571 45.5049 84.8083 46.353 87.4214 49.0118C89.6333 51.2696 90.3209 52.0259 91.7421 53.8138C92.2807 54.49 92.8881 54.9598 93.2205 54.9598C93.6331 54.9598 95.9138 52.8511 96.6702 51.7738L97.014 51.281L96.4754 50.2496C94.8365 47.0865 92.7621 38.09 92.1776 31.6377C91.7764 27.1682 91.7535 25.048 92.0286 18.7332L92.2234 14.1834L94.229 13.6562C95.3407 13.3697 96.418 13.1061 96.6243 13.0603L97.0025 12.9915L96.7619 13.4843C96.3149 14.3553 95.7533 15.9254 95.57 16.8193C95.3522 17.8966 95.3293 19.8334 95.547 20.7159C95.8794 22.1485 97.5871 24.4749 100.487 27.4432C102.435 29.4488 103.191 30.0906 103.581 30.0906C103.982 30.0906 105.243 28.6809 105.243 28.234C105.243 28.1194 104.796 27.5463 104.257 26.9619C99.2603 21.6327 97.7704 17.8393 99.4895 14.8481C99.65 14.5616 100.487 13.5989 101.358 12.705C103.203 10.7911 103.363 10.4931 102.905 9.80552C102.744 9.56485 102.412 9.15227 102.16 8.88868C101.759 8.46464 101.656 8.4188 101.381 8.48756C96.7275 9.67945 86.7796 11.3068 82.4245 11.5819C78.4476 11.834 75.3188 10.4244 73.9091 7.73117C73.3819 6.72265 73.1871 6.48198 72.9235 6.48198C72.6714 6.48198 69.6228 9.75968 69.5311 10.115C69.3477 10.8026 70.9866 12.6019 72.9808 13.9313C73.6799 14.3897 74.5051 14.9513 74.8145 15.169C77.1181 16.8193 80.3844 19.9022 80.82 20.842C81.4159 22.1026 81.2555 22.9965 80.2125 24.1082C79.3988 24.9677 78.459 25.6324 76.4763 26.7097C74.6541 27.7068 74.4134 27.8329 74.3561 27.7756C74.2988 27.7183 74.0925 25.3116 73.8977 22.1599C73.806 20.6586 73.6684 19.0427 73.5997 18.5613C73.1756 15.4785 71.8806 12.9113 70.9293 13.278C70.7116 13.3697 67.239 17.2778 66.7691 17.9654C66.5513 18.3092 66.3679 18.4696 66.345 18.378C66.3106 18.2977 66.1846 17.5872 66.047 16.7964C65.5542 13.874 65.325 12.7852 64.7864 10.6651C63.7434 6.63096 63.5257 6.02356 63.1131 6.02356C63.0329 6.02356 62.2421 6.81433 61.3596 7.76555C60.4657 8.72823 59.4686 9.77114 59.1133 10.0691C58.7695 10.3785 58.4829 10.6994 58.4829 10.8026C58.4829 10.9057 58.7695 11.3183 59.1247 11.7309C59.48 12.1435 59.8124 12.5904 59.8582 12.7279C60.076 13.301 60.0989 14.3668 59.9155 16.5672C59.6519 19.9251 59.5717 20.5555 58.8841 24.6468C57.9214 30.2969 58.0589 29.7238 57.6463 29.8155C57.3827 29.8614 56.9701 30.2166 56.2252 30.996C55.6407 31.6034 55.1249 32.1878 55.0906 32.3025C54.9874 32.6119 55.3198 33.0245 56.2023 33.6662C56.6607 33.9986 56.993 34.331 56.993 34.4456C56.993 34.5602 56.8326 35.3624 56.6378 36.2334C56.3054 37.7462 56.271 37.8493 55.847 38.239C55.6063 38.4567 54.953 38.9266 54.3915 39.259C53.8413 39.6028 52.9359 40.1758 52.3858 40.5425C51.8357 40.9093 51.3429 41.2072 51.2971 41.2072C51.2397 41.2072 51.32 40.2675 51.4575 39.11C51.6065 37.9639 52.0305 34.6289 52.4087 31.695C53.5548 22.6642 53.8413 20.097 54.4258 13.4729C54.678 10.6994 54.7009 6.28715 54.4831 4.76291C54.2998 3.46787 53.8528 1.87486 53.5434 1.35914C53.1422 0.717354 52.9589 0.820499 51.2283 2.60833ZM26.3126 10.6651C26.4501 10.7567 27.1149 11.4214 27.791 12.1435L29.0288 13.45L28.536 14.023C28.2724 14.3439 27.5847 14.9971 27.0002 15.467C25.5447 16.6589 25.5218 16.7162 26.0032 17.9195C26.5533 19.2948 26.5762 19.4896 27.3326 30.0104C27.4014 30.996 27.4358 31.8326 27.4128 31.8555C27.3785 31.8899 27.0346 31.8326 26.6335 31.7294L25.9 31.5461L25.0061 32.5087L24.1121 33.4714L24.1007 31.3627C24.1007 28.1194 24.433 23.3977 25.0863 17.484C25.5562 13.1749 25.9115 10.4931 26.0146 10.4931C26.0375 10.4931 26.1751 10.5734 26.3126 10.6651ZM88.258 14.6991C88.1778 14.9857 88.1663 15.9598 88.2121 17.4267C88.258 18.6874 88.3153 20.544 88.3382 21.5525C88.5101 27.1567 88.6247 29.5519 88.9227 32.8411C89.4614 39.0183 90.5387 45.0465 91.6275 48.1179C91.765 48.4732 91.8452 48.7941 91.8223 48.817C91.7994 48.8399 90.0115 47.1552 87.8569 45.058C85.7137 42.9607 83.7654 41.127 83.5362 40.9666C83.158 40.7144 83.1236 40.6457 83.1236 40.1414C83.1236 39.8435 83.2038 39.4194 83.2955 39.1902C83.3872 38.9725 84.2582 37.4711 85.2209 35.8437C86.218 34.1934 87.0775 32.6119 87.2036 32.2451C87.3984 31.6034 87.3984 31.5804 87.1807 31.3398C86.493 30.5834 83.7539 29.9531 80.2125 29.7468C78.1267 29.6207 76.8202 29.4373 76.8202 29.2769C76.8202 29.2196 76.866 29.1737 76.9233 29.1737C77.0838 29.1737 79.3759 27.638 80.8314 26.5607C82.6995 25.1626 83.8341 24.0051 84.2926 23.0309C84.6364 22.2974 84.6708 22.1485 84.6708 21.0941C84.6708 20.0512 84.6364 19.8793 84.3155 19.2031C83.9373 18.4009 83.1121 17.3121 81.7024 15.765L80.82 14.7908L81.4388 14.6991C82.6766 14.5272 85.622 14.3095 86.9858 14.2866L88.3726 14.2751L88.258 14.6991ZM31.8711 15.891C32.6733 16.5901 33.785 17.5299 34.3466 17.9768C35.4812 18.8937 35.9855 19.5011 36.4783 20.5211C36.994 21.6098 37.0857 22.3777 36.8221 23.2487C36.2147 25.2084 33.2578 28.8872 31.3553 30.0562L30.7708 30.4115L30.7135 23.2945C30.6677 16.6245 30.6218 15.7306 30.3353 14.8138C30.3009 14.7106 30.3009 14.6189 30.3468 14.6189C30.3812 14.6189 31.0688 15.1919 31.8711 15.891ZM45.6927 17.9425C47.6296 21.69 48.0078 27.5463 46.7242 33.9871C46.4148 35.5572 45.7844 37.8608 45.6354 37.9525C45.4979 38.0327 44.6384 36.7147 44.0882 35.5458C42.9765 33.1964 42.3233 30.1135 42.2431 26.7556C42.1284 22.6871 42.7244 19.7532 44.1685 17.1517L44.6498 16.2922L44.9249 16.636C45.0739 16.8193 45.4177 17.4038 45.6927 17.9425ZM69.2331 20.0627C69.5197 21.0368 69.7832 22.7673 70.1729 26.1367C70.4938 29.0248 70.5626 28.7268 69.5197 29.2425C69.0268 29.4832 68.5913 29.7009 68.5569 29.7124C68.5111 29.7353 68.2704 28.6351 67.9954 27.2598C67.4223 24.2801 66.5055 19.4094 66.5055 19.2948C66.5055 19.2031 67.4338 19.1229 68.3392 19.1344L68.9695 19.1458L69.2331 20.0627ZM63.1704 22.8132C63.3538 23.5696 63.858 25.7814 64.2706 27.7412C64.6832 29.6895 65.1187 31.6721 65.2333 32.1191L65.4511 32.9557H64.9697C64.6144 32.9557 64.0758 32.7494 62.6432 32.0274C60.9814 31.2022 60.7866 31.0762 60.8324 30.8584C60.8668 30.7209 61.2335 28.8758 61.6461 26.767C62.4598 22.5954 62.7234 21.3462 62.7807 21.4035C62.8036 21.4265 62.9756 22.0568 63.1704 22.8132ZM39.9738 31.8211C40.6271 34.8352 41.3262 36.9325 42.8161 40.3706L43.2287 41.3104L42.9422 41.4823C42.7932 41.5854 42.415 41.6771 42.1055 41.6771C40.3749 41.723 38.7361 39.3736 38.3235 36.2449C38.0484 34.2737 38.1974 31.4315 38.6788 29.5176C39.0913 27.8099 39.1143 27.7985 39.4122 29.231C39.5612 29.9187 39.8134 31.0876 39.9738 31.8211ZM35.6646 29.7124C34.679 32.566 34.4956 36.6116 35.2176 39.4538C36.0886 42.8461 38.4495 44.8746 41.521 44.8746C43.6986 44.8746 45.2802 43.9692 46.6096 41.9751C47.3202 40.8978 47.5379 40.4394 48.2485 38.514C48.5235 37.7576 48.7184 37.2878 48.684 37.4826C48.6496 37.666 48.4548 38.8578 48.237 40.1185C47.3889 45.0121 47.3431 45.7227 47.8817 46.7656C48.0193 47.0521 48.111 47.3042 48.0766 47.3386C48.0422 47.373 47.8244 47.3959 47.5952 47.3959C46.9305 47.3959 42.6556 47.946 40.8792 48.2554C38.8163 48.6222 36.0199 49.241 34.1518 49.7568C33.338 49.986 32.6619 50.1464 32.6504 50.1235C32.6275 50.1006 32.5587 49.6192 32.4899 49.0577C32.3639 48.1294 32.3753 47.9346 32.5702 47.2469C32.8223 46.3874 32.8108 46.3988 33.4068 45.6081C33.8996 44.9434 33.9225 44.8631 33.6246 44.5996C33.4297 44.4276 33.3724 44.4276 32.765 44.6569C32.4097 44.7944 32.1003 44.8861 32.0774 44.8631C32.0315 44.8058 31.0803 33.6777 31.0917 33.2995C31.1032 33.0703 31.3553 32.8296 32.3753 32.0962C33.0744 31.5919 34.1403 30.7094 34.7477 30.125C35.3551 29.5405 35.8594 29.0706 35.8709 29.0591C35.8823 29.0591 35.7906 29.3571 35.6646 29.7124ZM60.7866 35.7177C62.6547 36.4053 62.8036 36.4397 64.5457 36.4397L66.2075 36.4511L66.792 38.514C67.1244 39.6486 67.9151 42.1814 68.5455 44.1411C69.1873 46.1123 69.7145 47.8543 69.7145 48.0148C69.7145 48.3815 69.703 48.3815 67.9954 48.0835C64.1904 47.4074 59.6519 47.1323 53.5777 47.1782C49.3258 47.224 48.7986 47.2125 49.0164 47.0636C49.1424 46.9604 50.3114 46.0092 51.595 44.9319C52.8901 43.8661 54.2539 42.7659 54.6321 42.4908C55.2854 42.0324 55.5948 41.8834 55.4573 42.1126C55.4115 42.1699 55.3083 42.6054 55.2052 43.0868C55.0447 43.8775 55.0447 44.0151 55.2052 44.5652C55.3083 44.8975 55.5375 45.3903 55.7324 45.6539C56.2825 46.4103 56.5117 46.353 57.7724 45.058L58.8268 43.9921V42.571C58.8382 40.3936 58.9414 39.8893 59.6176 38.7776C59.9385 38.2619 60.2021 37.792 60.2021 37.7347C60.2021 37.6774 60.0531 37.4367 59.8582 37.1961C59.6749 36.9554 59.5144 36.6804 59.5144 36.5658C59.5144 36.3824 59.7551 35.3624 59.7895 35.3624C59.8009 35.3624 60.2479 35.5228 60.7866 35.7177Z" stroke="#868484" stroke-width="2" mask="url(#path-1-outside-1_3801_62)"/>
<path d="M10.4336 52.9141C10.7338 53.0511 11.0462 53.0105 11.3428 52.8906C11.6289 52.7749 11.9556 52.5642 12.3428 52.2666C13.1222 51.6676 14.2732 50.6175 16.04 48.9365V48.9355C16.9996 48.0219 17.7073 47.3163 18.2197 46.751C18.727 46.1914 19.0644 45.7471 19.2666 45.3574C19.3511 45.1969 19.4325 44.9823 19.3613 44.7051C19.3089 44.501 19.178 44.298 19.0439 44.0996L19.0391 44.0918C18.8573 43.8333 18.6893 43.6058 18.5283 43.4395C18.3717 43.2777 18.152 43.0996 17.8545 43.0723C17.5503 43.0443 17.303 43.1852 17.123 43.3242C16.9783 43.436 16.8287 43.5883 16.668 43.7598C16.1337 41.8397 13.5941 31.8377 13.2041 30.0938L13.2031 30.0918C12.6324 27.5919 12.2594 25.4722 12.1133 23.9102V23.9062C12.0377 23.1678 11.943 22.5465 11.8252 22.0586C11.7127 21.5926 11.5626 21.1708 11.3291 20.9014L11.3281 20.9023C11.2332 20.7924 10.9961 20.5012 10.584 20.5234C10.407 20.5331 10.2466 20.5992 10.1074 20.6768C9.96573 20.7557 9.81237 20.8661 9.64355 21.0029C9.14747 21.405 8.37357 22.1555 7.09766 23.4307L5.64551 24.8877C3.33469 27.2156 2.04829 28.5212 1.35645 29.2871C1.01549 29.6646 0.792538 29.9401 0.664062 30.1572C0.529579 30.3846 0.453985 30.6284 0.533203 30.8955H0.532227C0.533843 30.9014 0.53629 30.9073 0.538086 30.9131C0.538997 30.9159 0.539093 30.919 0.540039 30.9219H0.541992C0.575278 31.023 0.630811 31.102 0.650391 31.1289C0.685364 31.1769 0.727316 31.2273 0.770508 31.2764C0.85776 31.3755 0.973641 31.4946 1.10547 31.625C1.37076 31.8873 1.72228 32.2132 2.09473 32.5391C2.82429 33.189 4.17898 34.4413 5.08691 35.3379C5.54857 35.7938 5.98309 36.2081 6.3125 36.5098C6.47649 36.66 6.61889 36.785 6.72656 36.875C6.77942 36.9192 6.83022 36.9609 6.875 36.9932C6.89634 37.0085 6.92555 37.0285 6.95801 37.0469C6.9741 37.056 7.00076 37.0701 7.0332 37.083C7.05615 37.0921 7.12954 37.1201 7.22656 37.1201L7.35645 37.1064C7.39351 37.0984 7.42369 37.0883 7.44434 37.0811C7.49338 37.0638 7.53996 37.0418 7.58008 37.0215C7.66055 36.9808 7.74858 36.9279 7.83691 36.8701C8.01545 36.7534 8.23106 36.5951 8.45508 36.4189C8.90229 36.0674 9.41644 35.6201 9.78613 35.2383H9.78516L9.85449 35.167C10.1947 36.367 11.226 39.9291 12.373 43.8877L13.3076 47.1123L13.1768 47.2344L13.1758 47.2354C13.0068 47.3944 12.6189 47.6971 12.3193 47.8896L12.3125 47.8945C11.5286 48.4171 10.8489 48.9934 10.3594 49.543C10.1149 49.8175 9.90963 50.0948 9.7627 50.3633C9.6194 50.6252 9.51074 50.917 9.51074 51.21C9.5108 51.542 9.62585 51.8987 9.76855 52.1807C9.84216 52.3261 9.93157 52.4678 10.0332 52.5898C10.1298 52.7059 10.2625 52.835 10.4316 52.9131L10.4336 52.9141ZM9.18359 32.7949C9.02101 32.7907 8.95385 32.7753 8.87207 32.7383C8.73672 32.677 8.5538 32.5532 8.14746 32.2471L8.14844 32.2461C7.68761 31.895 6.78614 31.1069 6.15527 30.4873L6.15137 30.4834L6.15039 30.4844L5.32812 29.6934L5.99609 28.9414C6.52659 28.3432 7.27254 27.5754 7.6377 27.2324H7.63672L7.66406 27.208L7.70703 27.4658C7.81667 28.1341 8.24963 29.7542 8.65039 31.0596V31.0605L9.18359 32.7949Z" stroke="#868484"/>
<path d="M97.2197 36.7656C97.6047 36.7988 97.9437 36.5966 98.2119 36.373C98.4356 36.1866 98.7299 35.8235 98.9521 35.5176C99.0681 35.3579 99.1765 35.1959 99.2588 35.0576C99.2994 34.9893 99.3386 34.9183 99.3691 34.8516C99.3843 34.8184 99.4006 34.7788 99.4141 34.7363C99.4254 34.7003 99.4462 34.6302 99.4463 34.5449C99.4463 34.3872 99.3754 34.2592 99.3545 34.2207C99.3201 34.1574 99.2781 34.0947 99.2373 34.0391C99.1543 33.9261 99.0482 33.8023 98.9424 33.6895C98.8366 33.5767 98.7207 33.4631 98.6143 33.374C98.562 33.3303 98.5019 33.2842 98.4404 33.2461C98.4097 33.2271 98.3689 33.2048 98.3223 33.1855C98.2819 33.1689 98.2007 33.1387 98.0977 33.1387C98.0082 33.1387 97.9388 33.1624 97.9102 33.1729C97.8745 33.1858 97.8445 33.2006 97.8232 33.2119C97.7806 33.2346 97.7401 33.2615 97.7061 33.2852C97.6361 33.3338 97.5551 33.3975 97.4717 33.4678C97.3031 33.6098 97.0958 33.8015 96.8906 34.0127V34.0137C96.6841 34.2207 96.4932 34.438 96.3506 34.625C96.2793 34.7185 96.2134 34.8123 96.1631 34.8984C96.1382 34.9411 96.1122 34.9906 96.0908 35.043C96.0781 35.0741 96.0555 35.1338 96.0449 35.209L96.0391 35.2891L96.0488 35.4092C96.0672 35.5298 96.108 35.6488 96.1426 35.7363C96.1936 35.8657 96.2655 36.0093 96.3506 36.1406H96.3496C96.3517 36.1441 96.3544 36.1479 96.3564 36.1514C96.3589 36.1551 96.3608 36.1594 96.3633 36.1631H96.3643C96.543 36.4548 96.8141 36.7305 97.2197 36.7656Z" stroke="#868484"/>
<path d="M57.083 60.4912C57.1734 60.4748 57.2398 60.4405 57.2578 60.4316C57.3053 60.4082 57.3512 60.3802 57.3906 60.3545C57.4712 60.302 57.5647 60.233 57.6602 60.1582C57.8531 60.0071 58.0864 59.8081 58.3105 59.6074C58.5348 59.4067 58.7569 59.1971 58.9258 59.0244C59.009 58.9393 59.0869 58.8562 59.1465 58.7832C59.1755 58.7477 59.2087 58.7043 59.2373 58.6582C59.2515 58.6352 59.2703 58.6017 59.2871 58.5615C59.3009 58.5286 59.3311 58.451 59.3311 58.3496C59.331 58.1336 59.2276 57.9606 59.1504 57.8564C59.0646 57.7407 58.9544 57.6339 58.8398 57.54C58.6092 57.351 58.3065 57.1686 57.9824 57.0225L57.9746 57.0195C57.464 56.799 56.426 56.5094 55.3105 56.248C54.1822 55.9837 52.9241 55.7364 51.9512 55.6074L51.9502 55.6084C51.3807 55.53 50.563 55.454 49.7402 55.3945C53.0702 54.8148 55.7681 54.639 60.0762 54.668C62.0034 54.6851 63.0355 54.6925 63.6006 54.6689C63.8744 54.6575 64.0906 54.6376 64.2568 54.5869C64.3497 54.5586 64.442 54.5162 64.5273 54.4502C64.6036 54.3912 64.6544 54.3279 64.6875 54.2812C64.6897 54.2782 64.6921 54.2745 64.6943 54.2715C64.6958 54.2694 64.6978 54.2676 64.6992 54.2656H64.6982C64.8538 54.0505 64.9682 53.7807 64.9258 53.4746C64.8827 53.1643 64.6943 52.9279 64.4805 52.7549C64.0725 52.4248 63.3794 52.1697 62.4854 51.9404C61.5674 51.7047 61.0453 51.6722 58.1475 51.6494H58.1465C56.345 51.6379 54.0197 51.6606 52.9639 51.707V51.708C49.5681 51.8483 44.1738 53.0295 40.7354 54.377V54.3779C40.0063 54.6627 39.5104 54.8742 39.1416 55.1016C38.75 55.3431 38.5093 55.5972 38.2686 55.9346V55.9336C37.9284 56.3981 37.7244 56.8991 37.7344 57.4082C37.7445 57.9276 37.9759 58.3872 38.3721 58.7568L38.4766 58.8535C38.518 58.889 38.5657 58.9252 38.6172 58.957C38.7415 59.0337 38.8745 59.0749 39.0225 59.084C39.1513 59.0918 39.2851 59.0744 39.415 59.0527C39.5491 59.0303 39.7168 58.9964 39.9199 58.9541H39.9189C42.1681 58.5044 43.6354 58.3799 46.7402 58.3799C49.6504 58.3799 49.8776 58.4031 51.2939 58.6797L51.9756 58.8271C53.5786 59.1973 55.2315 59.7283 55.9922 60.1133L55.9941 60.1152C56.184 60.2102 56.3706 60.2968 56.5195 60.3613C56.5933 60.3933 56.6629 60.4219 56.7217 60.4434C56.7505 60.4539 56.7825 60.4655 56.8145 60.4746C56.8305 60.4792 56.9027 60.5 56.9863 60.5L57.083 60.4912Z" stroke="#868484"/>
</svg>
