<svg width="76" height="80" viewBox="0 0 76 80" fill="none" xmlns="http://www.w3.org/2000/svg">
<g clip-path="url(#clip0_3851_226)">
<path d="M58.458 26.433V16.946C60.948 15.754 62.642 13.254 62.658 10.354V10.129C62.648 6.097 59.398 2.831 55.386 2.818H55.162C51.149 2.829 47.898 6.094 47.885 10.124V10.348C47.8892 11.7161 48.2766 13.0557 49.0032 14.215C49.7298 15.3742 50.7665 16.3068 51.996 16.907L52.04 16.926L52.083 16.946V26.453C48.298 27.048 44.95 28.599 42.193 30.85L42.23 30.82L42.27 30.79L16.293 10.468C16.471 9.825 16.573 9.087 16.573 8.324C16.573 3.727 12.863 0 8.286 0C3.71 0 0 3.727 0 8.324C0 12.921 3.71 16.648 8.286 16.648C9.76596 16.6503 11.2191 16.253 12.492 15.498L12.453 15.518L12.413 15.538L37.953 35.51C35.795 38.72 34.508 42.676 34.508 46.934V47.001V46.998C34.508 51.475 35.918 55.625 38.314 59.018L38.271 58.955L30.499 66.763C29.8791 66.5594 29.2315 66.4525 28.579 66.446H28.568C24.842 66.446 21.822 69.48 21.822 73.223C21.822 76.966 24.842 80 28.568 80C32.294 80 35.315 76.966 35.315 73.223C35.3073 72.5326 35.1916 71.8476 34.972 71.193L34.986 71.239L34.999 71.286L42.689 63.562C46.2928 66.3413 50.718 67.8444 55.269 67.835C66.72 67.835 76 58.512 76 47.011C76 36.676 68.505 28.099 58.678 26.466L58.558 26.449L58.458 26.433ZM55.258 57.692C49.394 57.677 44.646 52.898 44.646 47.004C44.646 41.102 49.41 36.317 55.286 36.317C61.161 36.317 65.924 41.102 65.924 47.005V47.011C65.921 52.911 61.159 57.692 55.285 57.692H55.258Z" fill="#868484"/>
</g>
<defs>
<clipPath id="clip0_3851_226">
<rect width="76" height="80" fill="white"/>
</clipPath>
</defs>
</svg>
